<svg xmlns="http://www.w3.org/2000/svg" viewBox="0 0 419.1 430.87"><defs><style>.cls-1,.cls-2{fill:#00dc92;}.cls-1,.cls-16,.cls-17,.cls-7{opacity:0.5;}.cls-2{opacity:0.55;}.cls-3{fill:#37474f;}.cls-4{fill:#455a64;}.cls-24,.cls-32,.cls-5{fill:#27debf;}.cls-19,.cls-20,.cls-24,.cls-6{opacity:0.6;}.cls-27,.cls-8{opacity:0.4;}.cls-9{opacity:0.15;}.cls-10,.cls-18{fill:#263238;}.cls-11{fill:#e6e6e6;}.cls-12{fill:#e0e0e0;}.cls-13{fill:#f5f5f5;}.cls-14{fill:#ebebeb;}.cls-15,.cls-16,.cls-19,.cls-21,.cls-31{fill:#fff;}.cls-18,.cls-23{opacity:0.9;}.cls-21,.cls-22{opacity:0.8;}.cls-25{fill:#ffa8a7;}.cls-26{fill:#fafafa;}.cls-28{fill:#f28f8f;}.cls-29,.cls-30{fill:none;stroke:#263238;stroke-miterlimit:10;}.cls-29{stroke-width:1.21px;}.cls-30{stroke-width:1.03px;}.cls-31{opacity:0.75;}.cls-32{opacity:0.1;}.cls-33{opacity:0.3;}.cls-34{opacity:0.2;}.cls-35{fill:#f0f0f0;}</style></defs><g id="Text_Boxes" data-name="Text Boxes"><path id="Shadow" class="cls-1" d="M1771.24-113.06l-125,72.2a3.73,3.73,0,0,1-3.35,0l-180.22-104a1,1,0,0,1,0-1.94l125-72.2a3.69,3.69,0,0,1,3.36,0L1771.24-115A1,1,0,0,1,1771.24-113.06Z" transform="translate(-1360.82 431.34)"/><ellipse id="Shadow-2" data-name="Shadow" class="cls-2" cx="119.96" cy="387.52" rx="75.08" ry="43.35"/><ellipse id="Shadow-3" data-name="Shadow" class="cls-1" cx="347.82" cy="386.99" rx="37.1" ry="21.42"/><g id="Desk-2" data-name="Desk"><g id="Table"><path class="cls-3" d="M1649-169.85V-58.91a2.45,2.45,0,0,1-1.12,1.94l-2.38,1.38a2.52,2.52,0,0,1-2.24,0L1640.85-57a2.45,2.45,0,0,1-1.12-1.94V-169.85c0-.71.5-1,1.12-.65l2.38,1.38a2.46,2.46,0,0,0,2.24,0l2.38-1.38C1648.47-170.85,1649-170.56,1649-169.85Z" transform="translate(-1360.82 431.34)"/><path class="cls-4" d="M1643.23-55.59,1640.85-57a2.45,2.45,0,0,1-1.12-1.94V-169.85c0-.71.5-1,1.12-.65l2.38,1.38a2.47,2.47,0,0,1,1.12,1.94V-56.24C1644.35-55.52,1643.85-55.24,1643.23-55.59Z" transform="translate(-1360.82 431.34)"/><path class="cls-3" d="M1750.48-228.49v110.94a2.48,2.48,0,0,1-1.12,1.94l-2.38,1.37a2.46,2.46,0,0,1-2.24,0l-2.38-1.37a2.48,2.48,0,0,1-1.12-1.94V-228.49c0-.72.5-1,1.12-.65l2.38,1.38a2.52,2.52,0,0,0,2.24,0l2.38-1.38C1750-229.5,1750.48-229.21,1750.48-228.49Z" transform="translate(-1360.82 431.34)"/><path class="cls-4" d="M1744.74-114.24l-2.38-1.37a2.48,2.48,0,0,1-1.12-1.94V-228.49c0-.72.5-1,1.12-.65l2.38,1.38a2.45,2.45,0,0,1,1.12,1.93v111C1745.86-114.17,1745.36-113.88,1744.74-114.24Z" transform="translate(-1360.82 431.34)"/><path class="cls-3" d="M1512.26-248.74V-137.8a2.47,2.47,0,0,1-1.12,1.94l-2.38,1.38a2.52,2.52,0,0,1-2.24,0l-2.38-1.38a2.47,2.47,0,0,1-1.12-1.94V-248.74c0-.71.5-1,1.12-.65l2.38,1.38a2.52,2.52,0,0,0,2.24,0l2.38-1.38C1511.76-249.74,1512.26-249.45,1512.26-248.74Z" transform="translate(-1360.82 431.34)"/><path class="cls-4" d="M1506.52-134.48l-2.38-1.38a2.47,2.47,0,0,1-1.12-1.94V-248.74c0-.71.5-1,1.12-.65l2.38,1.38a2.45,2.45,0,0,1,1.12,1.94v110.94C1507.64-134.42,1507.14-134.13,1506.52-134.48Z" transform="translate(-1360.82 431.34)"/><path class="cls-5" d="M1772.57-220.6v-.81a4.49,4.49,0,0,0-2-3.53l-179-103.26a4.51,4.51,0,0,0-4.08,0l-110.13,63.61a4.51,4.51,0,0,0-2,3.53v.81a4.51,4.51,0,0,0,2,3.53l179,103.25a4.51,4.51,0,0,0,4.08,0l110.12-63.6A4.49,4.49,0,0,0,1772.57-220.6Z" transform="translate(-1360.82 431.34)"/><path class="cls-6" d="M1772.57-220.6v-.81a4.49,4.49,0,0,0-2-3.53l-179-103.26a4.51,4.51,0,0,0-4.08,0l-110.13,63.61a4.51,4.51,0,0,0-2,3.53v.81a4.51,4.51,0,0,0,2,3.53l179,103.25a4.51,4.51,0,0,0,4.08,0l110.12-63.6A4.49,4.49,0,0,0,1772.57-220.6Z" transform="translate(-1360.82 431.34)"/><path class="cls-5" d="M1658.37-158.5V-153a4.36,4.36,0,0,0,2-.49l110.12-63.61a4.49,4.49,0,0,0,2-3.53v-.81a4.5,4.5,0,0,0-1.66-3.26c.73.62.61,1.5-.38,2.08L1660.41-159A4.13,4.13,0,0,1,1658.37-158.5Z" transform="translate(-1360.82 431.34)"/><path class="cls-7" d="M1658.37-158.5V-153a4.36,4.36,0,0,0,2-.49l110.12-63.61a4.49,4.49,0,0,0,2-3.53v-.81a4.5,4.5,0,0,0-1.66-3.26c.73.62.61,1.5-.38,2.08L1660.41-159A4.13,4.13,0,0,1,1658.37-158.5Z" transform="translate(-1360.82 431.34)"/><path class="cls-5" d="M1770.53-222.59,1660.41-159a4.51,4.51,0,0,1-4.08,0l-179-103.25a1.24,1.24,0,0,1,0-2.35l110.13-63.61a4.51,4.51,0,0,1,4.08,0l179,103.26A1.24,1.24,0,0,1,1770.53-222.59Z" transform="translate(-1360.82 431.34)"/><path class="cls-8" d="M1770.53-222.59,1660.41-159a4.51,4.51,0,0,1-4.08,0l-179-103.25a1.24,1.24,0,0,1,0-2.35l110.13-63.61a4.51,4.51,0,0,1,4.08,0l179,103.26A1.24,1.24,0,0,1,1770.53-222.59Z" transform="translate(-1360.82 431.34)"/></g><g id="Keyboard"><path id="Shadow-4" data-name="Shadow" class="cls-9" d="M1644.84-224l-26.09,15.11a3.22,3.22,0,0,1-2.93,0l-77.08-44.44a.89.89,0,0,1,0-1.69l26.09-15.11a3.2,3.2,0,0,1,2.92,0l77.09,44.44A.89.89,0,0,1,1644.84-224Z" transform="translate(-1360.82 431.34)"/><g id="Keyboard-2" data-name="Keyboard"><path class="cls-10" d="M1540.32-257.68a1,1,0,0,1,.61-.84l24.51-14.15a3.2,3.2,0,0,1,2.92,0l74.8,43.25a1,1,0,0,1,.6.85V-226a1,1,0,0,1-.6.84L1618.66-211a3.28,3.28,0,0,1-2.93,0l-74.8-43.19a1,1,0,0,1-.61-.84Z" transform="translate(-1360.82 431.34)"/><path class="cls-3" d="M1618.66-213.65l24.5-14.08a.89.89,0,0,0,0-1.69l-74.8-43.25a3.2,3.2,0,0,0-2.92,0l-24.51,14.15a.88.88,0,0,0,0,1.68l74.8,43.19A3.22,3.22,0,0,0,1618.66-213.65Z" transform="translate(-1360.82 431.34)"/><path class="cls-10" d="M1617.29-213.3v2.63a3,3,0,0,0,1.37-.34l24.49-14.15a1,1,0,0,0,.61-.84v-2.58a1,1,0,0,1-.61.85l-24.49,14.09A3,3,0,0,1,1617.29-213.3Z" transform="translate(-1360.82 431.34)"/><path class="cls-5" d="M1544.86-257.49s0,0,0,0l2.42-1.4,3.29,1.9-2.44,1.44-3.29-1.89Zm3.8-2.19a0,0,0,0,1,0,0l2.43-1.41,2.58,1.5-2.44,1.44-2.58-1.49Zm.8,4.84v0l2.43-1.4,2.58,1.49-2.44,1.45-2.58-1.49Zm3-7s0,0,0,0l2.43-1.4,4.17,2.41-2.44,1.45-4.17-2.41Zm.1,4.44s0,0,0,0l2.42-1.4,2,1.19-2.44,1.44-2-1.18Zm.8,4.85a0,0,0,0,1,0,0l2.43-1.4,2.59,1.49-2.45,1.45-2.58-1.49Zm2.56-2.91s0,0,0,0l2.42-1.4,2.05,1.19L1558-254.3l-2-1.18Zm.34-8.57s0,0,0,0l2.43-1.4,3.29,1.9-2.45,1.45-3.28-1.9Zm1,13.73s0,0,0,0l2.42-1.41L1578.36-241l-2.44,1.45-18.68-10.79Zm.7-8.37a0,0,0,0,1,0,0l2.43-1.4,2,1.18-2.44,1.45-2-1.18Zm1.33,5.15s0,0,0,0l2.42-1.4,2,1.19-2.44,1.44-2-1.18Zm.78-12.7s0,0,0,0l2.42-1.4,2.06,1.18-2.44,1.45-2.06-1.18Zm.8,4.85a.05.05,0,0,1,0,0l2.42-1.4,2.06,1.19-2.45,1.45-2.05-1.19Zm.45,4.64a0,0,0,0,1,0,0l2.43-1.4,2,1.18-2.44,1.45-2-1.18Zm1.33,5.15s0,0,0,0l2.42-1.4,2,1.19-2.44,1.44-2-1.18Zm.78-12.7s0,0,0,0l2.42-1.4,2.06,1.18-2.44,1.45-2.06-1.18Zm.8,4.85a.05.05,0,0,1,0,0l2.42-1.4,2.06,1.19-2.45,1.45-2-1.19Zm.45,4.64s0,0,0,0l2.42-1.4,2.05,1.18-2.44,1.45-2-1.18Zm0-14.09s0,0,0,0l2.42-1.41,2.59,1.5-2.45,1.45-2.58-1.5Zm1.33,19.24s0,0,0,0l2.42-1.4,2,1.19-2.44,1.44-2-1.18Zm.78-12.7s0,0,0,0l2.42-1.4,2.06,1.18-2.44,1.45-2-1.18Zm.8,4.85a.05.05,0,0,1,0,0L1570-259l2.06,1.19-2.44,1.45-2.06-1.19Zm.45,4.64s0,0,0,0l2.42-1.4,2,1.18-2.44,1.45-2-1.18Zm1.33,5.15s0,0,0,0l2.42-1.4,2,1.19-2.44,1.44-2.05-1.18Zm.66-18.09s0,0,0,0l2.43-1.4,2,1.18-2.44,1.45-2-1.18Zm.12,5.39s0,0,0,0l2.42-1.4,2.06,1.18-2.45,1.45-2-1.18Zm.8,4.85a.05.05,0,0,1,0,0l2.42-1.4,2.06,1.19-2.44,1.45-2.06-1.19Zm.45,4.64s0,0,0,0l2.42-1.4,2,1.18-2.44,1.45-2-1.18Zm1.33,5.15,0,0,2.42-1.4,2,1.19-2.44,1.44-2-1.18Zm.66-18.09s0,0,0,0l2.42-1.4,2.06,1.18-2.44,1.45-2-1.18Zm.12,5.39s0,0,0,0l2.42-1.4,2.06,1.18-2.45,1.45-2-1.18Zm.8,4.85a.05.05,0,0,1,0,0l2.42-1.4,2.06,1.19-2.44,1.45-2-1.19Zm.45,4.64a0,0,0,0,1,0,0l2.43-1.4,2,1.18-2.44,1.45-2-1.18Zm1.33,5.15s0,0,0,0l2.42-1.4,2,1.19-2.44,1.44-2-1.18Zm.66-18.09s0,0,0,0l2.42-1.4,2.06,1.18-2.44,1.45-2-1.18Zm.12,5.39s0,0,0,0l2.42-1.4,2.06,1.18-2.45,1.45-2-1.18Zm.37,17.75,0,0,2.43-1.4,2.58,1.49-2.44,1.45-2.58-1.49Zm.43-12.9a.05.05,0,0,1,0,0l2.42-1.4,2.06,1.19-2.44,1.45-2-1.19Zm.45,4.64a0,0,0,0,1,0,0l2.43-1.4,2,1.18-2.44,1.45L1578.1-247Zm1.33,5.15s0,0,0,0l2.42-1.4,2.05,1.19-2.44,1.44-2-1.18Zm.66-18.09s0,0,0,0l2.42-1.4,2.06,1.18-2.44,1.45L1580.1-260Zm.12,5.39s0,0,0,0l2.42-1.4,2.06,1.18-2.45,1.45-2-1.18Zm.8,4.85a.05.05,0,0,1,0,0l2.42-1.4,2.06,1.19-2.44,1.45-2-1.19Zm.1,13.21a0,0,0,0,1,0,0l2.43-1.4,2.58,1.49L1583.7-235l-2.58-1.49Zm.35-8.57s0,0,0,0l2.42-1.4,2,1.18-2.44,1.45-2-1.18Zm1.33,5.15s0,0,0,0l2.42-1.4,2,1.19-2.44,1.44-2-1.18Zm.78-12.7s0,0,0,0l2.42-1.4,2.06,1.18-2.45,1.45-2-1.18Zm.8,4.85a.05.05,0,0,1,0,0l2.42-1.4,2.06,1.19-2.44,1.45-2-1.19Zm.45,4.64a0,0,0,0,1,0,0l2.43-1.4,2,1.18-2.44,1.45-2-1.18Zm.09-14,0,0,2.43-1.4,2.05,1.19L1587-256l-2-1.18Zm.09,22.92s0,0,0,0l2.43-1.4,2.58,1.5-2.44,1.45-2.58-1.5Zm1.15-3.73s0,0,0,0l2.42-1.4,2.06,1.19-2.45,1.44-2-1.18Zm.78-12.7a0,0,0,0,1,0,0l2.42-1.4,2.06,1.18-2.44,1.45-2-1.18Zm.8,4.85a.05.05,0,0,1,0,0l2.42-1.4,2.06,1.19-2.44,1.45-2-1.19Zm.45,4.64a0,0,0,0,1,0,0l2.43-1.4,2.05,1.18-2.44,1.45-2-1.18Zm.09-14s0,0,0,0l2.43-1.4,2,1.19-2.44,1.44-2-1.18Zm.63,23.22s0,0,0,0l2.43-1.4,3.29,1.9-2.44,1.45-3.29-1.9Zm.61-4s0,0,0,0l2.42-1.4,6.48,3.74-2.44,1.45-6.48-3.74Zm.78-12.7s0,0,0,0l2.43-1.4,2,1.18-2.44,1.45-2-1.18Zm.8,4.85a.05.05,0,0,1,0,0l2.43-1.4,2,1.19-2.44,1.45-2.05-1.19Zm.45,4.64s0,0,0,0l2.42-1.4,2,1.18-2.44,1.45-2-1.18Zm.1-14a.1.1,0,0,1,0,0l2.43-1.4,2.05,1.19-2.44,1.44-2-1.18Zm2,6.49s0,0,0,0l2.43-1.4,2.05,1.18-2.44,1.45-2-1.18Zm.55,17.86s0,0,0,0l2.42-1.41,2.06,1.19-2.45,1.45-2-1.19Zm.25-13a.05.05,0,0,1,0,0l2.43-1.4,2,1.19-2.44,1.45-2-1.19Zm.45,4.64s0,0,0,0l2.42-1.4,1.88,1.08a1.21,1.21,0,0,0,.59.12,1.22,1.22,0,0,0,.62-.13l3.19-1.84,2.4,1.39-6.23,3.65-4.89-2.82Zm.1-14v0l2.43-1.4,2,1.19-2.44,1.44-2-1.18Zm2,6.49s0,0,0,0l2.42-1.4,2.06,1.18-2.44,1.45-2-1.18Zm.55,17.86s0,0,0,0l2.42-1.41,2.06,1.19-2.45,1.45-2-1.19Zm.25-13a.05.05,0,0,1,0,0l2.43-1.4,2,1.19-2.44,1.45-2-1.19Zm2-8.55s0,0,0,0l2.43-1.4,2,1.19-2.44,1.45-2-1.19Zm.55,5.64s0,0,0,0l2.42-1.4,2.06,1.18-2.44,1.45-2-1.18Zm.55,17.86a.05.05,0,0,1,0,0l2.42-1.4,2.06,1.19-2.45,1.45-2-1.19Zm.44-4.14s0,0,0,0l2.42-1.4,2,1.19-2.44,1.45-2.05-1.19Zm1.82-17.42s0,0,0,0l2.43-1.4,2.05,1.19-2.44,1.45-2-1.19Zm.55,5.64s0,0,0,0l2.42-1.4,3.65,2.1-2.44,1.45-3.64-2.1Zm1.26,18.27a.05.05,0,0,1,0,0l2.42-1.4,5.42,3.13-2.45,1.45-5.41-3.13Zm.6-12.81a0,0,0,0,1,0,0L1608-237l2,1.18-2.44,1.45-2.05-1.18Zm1-9.16a.05.05,0,0,1,0,0l2.42-1.4,2,1.19-2.44,1.45-2-1.19Zm2.25,19.77v0l2.43-1.4,2,1.19-2.44,1.44-2-1.18Zm.16-8.67a0,0,0,0,1,0,0l2.43-1.4,2,1.18-2.44,1.45-2-1.18Zm.44-4.13a.05.05,0,0,1,0,0l2.42-1.4,2.06,1.19-2.44,1.45-2-1.19Zm.51-5a.05.05,0,0,1,0,0l2.42-1.4,2.05,1.19L1612-241.6l-2-1.19Zm1.81,23.9,0,0,2.42-1.4,2.06,1.19-2.45,1.45-2-1.19Zm.44-4.13v0l2.43-1.4,2.05,1.19-2.44,1.44-2-1.18Zm.16-8.67a0,0,0,0,1,0,0l2.43-1.4,2,1.18-2.44,1.45-2-1.18Zm.27,4.54a0,0,0,0,1,0,0l2.43-1.4,2,1.18-2.44,1.45-2.05-1.18Zm.17-8.67a.05.05,0,0,1,0,0l2.42-1.4,2.06,1.19-2.44,1.45-2-1.19Zm1.25-4.6a.05.05,0,0,1,0,0l2.42-1.4,2.06,1.19-2.44,1.45-2-1.19Zm1.07,23.48a.05.05,0,0,1,0,0l6.22-3.59,2,1.19-6.23,3.64-2.06-1.19Zm.44-4.14v0l2.43-1.4,2,1.19-2.44,1.44-2-1.18Zm.43-4.13a0,0,0,0,1,0,0l2.43-1.4,2,1.18L1618-224l-2-1.18Zm.17-8.67a.05.05,0,0,1,0,0l2.43-1.4,2,1.19-2.44,1.45-2.05-1.19Zm.27,4.54s0,0,0,0l2.43-1.41,2.05,1.19-2.44,1.45-2-1.18Zm1-9.14a.05.05,0,0,1,0,0l2.42-1.4,2.06,1.19-2.44,1.45-2.05-1.19Zm2,15.21a0,0,0,0,1,0,0l2.43-1.4,2,1.18-2.44,1.45-2-1.18Zm.43-4.13s0,0,0,0l2.43-1.41,2,1.19-2.44,1.45-2-1.19Zm.44-4.14,0,0,2.42-1.4,2.06,1.19-2.45,1.45-2-1.19Zm.54-5a.05.05,0,0,1,0,0l2.42-1.4,2.06,1.19-2.44,1.45-2-1.19Zm2,15.21a0,0,0,0,1,0,0l6.23-3.6,2,1.19-6.24,3.64-2-1.18Zm.43-4.13s0,0,0,0l2.43-1.41,2,1.19-2.44,1.45-2.05-1.19Zm.44-4.14,0,0L1626-231l2.06,1.19-2.45,1.45-2-1.19Zm2.22-5.16a0,0,0,0,1,0,0l1-.61,2.06,1.19-1.06.65-2-1.18Zm1.14,7.1s0,0,0,0l2.42-1.4,2.06,1.19-2.45,1.45-2-1.19Zm2.22-5.16a0,0,0,0,1,0,0l1-.61,2.06,1.19-1.06.65-2-1.18Zm1.14,7.1s0,0,0,0l2.42-1.4,2.06,1.19-2.45,1.45-2-1.19Zm2.23-5.16a0,0,0,0,1,0,0l1-.61,2.06,1.19-1.06.65-2-1.18Zm3.35,1.94a0,0,0,0,1,0,0l1-.61,2.06,1.19-1.06.65-2-1.18Z" transform="translate(-1360.82 431.34)"/></g></g><g id="Device"><polygon id="Shadow-5" data-name="Shadow" class="cls-9" points="344.31 210.29 367.26 197.04 252.5 130.78 229.55 144.03 344.31 210.29"/><g id="Monitor"><path class="cls-11" d="M1640.14-242.62l-16.38-9.47c-1.69-1-2.54-2.26-2.54-3.53v-2.28l15.42-8.75a3.62,3.62,0,0,0,1.63-2.83v-20.2l28.62,16.54v20.2a3.6,3.6,0,0,1-1.63,2.82l-12.88,7.5A13.54,13.54,0,0,1,1640.14-242.62Z" transform="translate(-1360.82 431.34)"/><path class="cls-12" d="M1660-249.36v2.27l5.24-3a3.6,3.6,0,0,0,1.63-2.82v-20.2l-5.45-3.15c-.11,1.39-.24,2.82-.35,4.21l3.82,2.21v15.79a3.56,3.56,0,0,1-1.63,2.82Z" transform="translate(-1360.82 431.34)"/><path class="cls-13" d="M1664.91-254.08a3.62,3.62,0,0,1-1.63,2.83l-10.9,6.35a13.54,13.54,0,0,1-12.24,0l-16.39-9.48c-3.38-1.95-3.38-5.11,0-7.06l10.91-6.36a3.62,3.62,0,0,0,1.63-2.83V-286.4l28.62,16.53Z" transform="translate(-1360.82 431.34)"/><path class="cls-14" d="M1631.34-265.87h0l3.32-1.92a3.62,3.62,0,0,0,1.63-2.83V-286.4l28.62,16.53v15.79a3.62,3.62,0,0,1-1.63,2.83l-3.26,1.88Z" transform="translate(-1360.82 431.34)"/><path class="cls-14" d="M1621.22-257.9v2.28c0,1.28.85,2.55,2.53,3.53l16.39,9.47a12.32,12.32,0,0,0,5.84,1.45v-2.27a12.32,12.32,0,0,1-5.84-1.45l-16.39-9.48C1622.07-255.34,1621.22-256.62,1621.22-257.9Z" transform="translate(-1360.82 431.34)"/><path class="cls-4" d="M1710.87-232.28a4.37,4.37,0,0,1-3.95-.08l-110.69-63.9a4.49,4.49,0,0,1-2-3.53v-96.89a4.39,4.39,0,0,1,1.91-3.46,4.42,4.42,0,0,1,4,.08l110.68,63.9a4.49,4.49,0,0,1,2,3.53v96.89A4.36,4.36,0,0,1,1710.87-232.28Z" transform="translate(-1360.82 431.34)"/><path class="cls-3" d="M1706.92-232.36l-110.69-63.9a4.49,4.49,0,0,1-2-3.53v-96.89c0-1.3.91-1.83,2-1.18l110.69,63.91a4.51,4.51,0,0,1,2,3.53v96.88C1709-232.24,1708-231.71,1706.92-232.36Z" transform="translate(-1360.82 431.34)"/><path class="cls-12" d="M1707.22-231.95a4.41,4.41,0,0,0,3.65-.08,4.37,4.37,0,0,0,1.91-3.47v-10.89l-3.82,2.21v10.9C1709-232.1,1708.21-231.56,1707.22-231.95Z" transform="translate(-1360.82 431.34)"/><path class="cls-15" d="M1709-244.18v10.89c0,1.3-.92,1.83-2,1.18L1596.23-296a4.49,4.49,0,0,1-2-3.53v-10.9Z" transform="translate(-1360.82 431.34)"/><path class="cls-5" d="M1705.13-252.47v-76.68a2.72,2.72,0,0,0-1.22-2.12L1599.24-391.7c-.67-.39-1.22-.07-1.22.71v76.68a2.7,2.7,0,0,0,1.23,2.12l104.67,60.43C1704.58-251.37,1705.13-251.69,1705.13-252.47Z" transform="translate(-1360.82 431.34)"/><path class="cls-16" d="M1705.13-252.47v-76.68a2.72,2.72,0,0,0-1.22-2.12L1599.24-391.7c-.67-.39-1.22-.07-1.22.71v76.68a2.7,2.7,0,0,0,1.23,2.12l104.67,60.43C1704.58-251.37,1705.13-251.69,1705.13-252.47Z" transform="translate(-1360.82 431.34)"/><path class="cls-4" d="M1651.57-273.14a4.22,4.22,0,0,1,1.92,3.31c0,1.22-.86,1.71-1.92,1.1a4.24,4.24,0,0,1-1.91-3.31C1649.66-273.26,1650.52-273.75,1651.57-273.14Z" transform="translate(-1360.82 431.34)"/><path class="cls-10" d="M1708.36-332.44a4.43,4.43,0,0,1,.6,2v86.24l3.82-2.21v-86.24a4.17,4.17,0,0,0-.6-2Z" transform="translate(-1360.82 431.34)"/></g></g><g id="Window"><g id="Window-2" data-name="Window"><path class="cls-4" d="M1612.3-416.68a1,1,0,0,1,0-.18.06.06,0,0,1,0,0c0-.06,0-.12,0-.17a1,1,0,0,1,.12-.25.33.33,0,0,1,.06-.1.22.22,0,0,1,.06-.07.53.53,0,0,1,.13-.13v0a.91.91,0,0,1,.17-.09,1.42,1.42,0,0,1,1.31.16L1743.42-343a4.34,4.34,0,0,1,1.95,3.38v93.94a1.33,1.33,0,0,1-.7,1.17l-.09.06-.1.05a.49.49,0,0,1-.17.06,1,1,0,0,1-.25,0,1.16,1.16,0,0,1-.64-.18l-.05,0h0l-1.86-1.08-127.26-73.47a4.32,4.32,0,0,1-2-3.38v-94C1612.29-416.52,1612.3-416.6,1612.3-416.68Z" transform="translate(-1360.82 431.34)"/><path class="cls-5" d="M1612.93-417.73a1.42,1.42,0,0,1,1.31.16L1743.42-343a4.34,4.34,0,0,1,1.95,3.38v6.38l2.49-1.46V-341a4.29,4.29,0,0,0-1.95-3.38L1616.73-419a1.34,1.34,0,0,0-1.41-.12C1615-418.88,1613.35-417.95,1612.93-417.73Z" transform="translate(-1360.82 431.34)"/><path class="cls-5" d="M1612.29-416.45c0-1.23.88-1.73,2-1.11L1743.42-343a4.31,4.31,0,0,1,1.95,3.38v6.38L1612.29-410Z" transform="translate(-1360.82 431.34)"/><g class="cls-17"><path class="cls-15" d="M1614.24-417.56,1743.42-343a4,4,0,0,1,1.37,1.45l2.48-1.44a3.88,3.88,0,0,0-1.36-1.42L1616.74-419a1.37,1.37,0,0,0-1.42-.11c-.35.21-2,1.13-2.38,1.35A1.42,1.42,0,0,1,1614.24-417.56Z" transform="translate(-1360.82 431.34)"/></g><path class="cls-9" d="M1747.86-334.71V-341a4,4,0,0,0-.59-2l-2.49,1.43a3.9,3.9,0,0,1,.59,1.94v6.38Z" transform="translate(-1360.82 431.34)"/><path class="cls-4" d="M1741-341.67a2.9,2.9,0,0,1,1.1,2.33c0,.94-.49,1.42-1.1,1.06a2.89,2.89,0,0,1-1.1-2.33C1739.87-341.55,1740.36-342,1741-341.67Z" transform="translate(-1360.82 431.34)"/><path class="cls-4" d="M1737-344a2.92,2.92,0,0,1,1.1,2.34c0,.94-.49,1.41-1.1,1.06a2.91,2.91,0,0,1-1.1-2.34C1735.9-343.84,1736.39-344.32,1737-344Z" transform="translate(-1360.82 431.34)"/><path class="cls-4" d="M1733-346.26a2.89,2.89,0,0,1,1.1,2.33c0,.94-.49,1.41-1.1,1.06a2.89,2.89,0,0,1-1.1-2.33C1731.93-346.14,1732.42-346.61,1733-346.26Z" transform="translate(-1360.82 431.34)"/><path class="cls-18" d="M1744.67-244.52l.1-.06,2.06-1.19a2.1,2.1,0,0,0,1-1.51,2.81,2.81,0,0,0,0-.29v-87.15l-2.49,1.46v87.55a1.28,1.28,0,0,1-.61,1.11l-.06,0a0,0,0,0,0,0,0Z" transform="translate(-1360.82 431.34)"/></g><g id="Code"><path class="cls-5" d="M1651.86-376.78l27.23,15.7a1.48,1.48,0,0,1,.7,1.15c0,.41-.31.57-.7.35l-27.23-15.69a1.49,1.49,0,0,1-.69-1.15C1651.17-376.84,1651.48-377,1651.86-376.78Z" transform="translate(-1360.82 431.34)"/><path class="cls-11" d="M1662.27-346.73l10.32,5.93a1.49,1.49,0,0,1,.69,1.15c0,.42-.31.58-.69.36l-10.32-5.94a1.48,1.48,0,0,1-.7-1.15C1661.57-346.8,1661.88-346.95,1662.27-346.73Z" transform="translate(-1360.82 431.34)"/><path class="cls-11" d="M1662.27-340.73l10.32,5.94a1.49,1.49,0,0,1,.69,1.15c0,.42-.31.57-.69.35l-10.32-5.93a1.48,1.48,0,0,1-.7-1.15C1661.57-340.79,1661.88-340.95,1662.27-340.73Z" transform="translate(-1360.82 431.34)"/><path class="cls-5" d="M1681.78-359.53l54.53,31.4A1.49,1.49,0,0,1,1737-327c0,.42-.31.57-.69.35L1681.78-358a1.48,1.48,0,0,1-.69-1.15C1681.09-359.59,1681.4-359.75,1681.78-359.53Z" transform="translate(-1360.82 431.34)"/><path class="cls-5" d="M1662.49-304.6l16.6,9.6a1.5,1.5,0,0,1,.7,1.16c0,.41-.31.57-.7.35l-16.6-9.61a1.49,1.49,0,0,1-.69-1.15C1661.8-304.67,1662.11-304.82,1662.49-304.6Z" transform="translate(-1360.82 431.34)"/><path class="cls-5" d="M1681.78-293.44,1736.31-262a1.48,1.48,0,0,1,.69,1.15c0,.41-.31.57-.69.35l-54.53-31.44a1.49,1.49,0,0,1-.69-1.15C1681.09-293.51,1681.4-293.67,1681.78-293.44Z" transform="translate(-1360.82 431.34)"/><path class="cls-5" d="M1651.86-370.75l13.72,7.88a1.49,1.49,0,0,1,.69,1.15c0,.42-.31.57-.69.35l-13.72-7.88a1.49,1.49,0,0,1-.69-1.15C1651.17-370.82,1651.48-371,1651.86-370.75Z" transform="translate(-1360.82 431.34)"/><path class="cls-19" d="M1651.86-370.75l13.72,7.88a1.49,1.49,0,0,1,.69,1.15c0,.42-.31.57-.69.35l-13.72-7.88a1.49,1.49,0,0,1-.69-1.15C1651.17-370.82,1651.48-371,1651.86-370.75Z" transform="translate(-1360.82 431.34)"/><path class="cls-5" d="M1651.86-364.76l6.42,3.71a1.48,1.48,0,0,1,.69,1.15c0,.41-.31.57-.69.35l-6.42-3.7a1.51,1.51,0,0,1-.69-1.16C1651.17-364.82,1651.48-365,1651.86-364.76Z" transform="translate(-1360.82 431.34)"/><path class="cls-19" d="M1651.86-364.76l6.42,3.71a1.48,1.48,0,0,1,.69,1.15c0,.41-.31.57-.69.35l-6.42-3.7a1.51,1.51,0,0,1-.69-1.16C1651.17-364.82,1651.48-365,1651.86-364.76Z" transform="translate(-1360.82 431.34)"/><path class="cls-5" d="M1651.86-352.74l6.42,3.7a1.49,1.49,0,0,1,.69,1.15c0,.42-.31.57-.69.35l-6.42-3.7a1.48,1.48,0,0,1-.69-1.15C1651.17-352.8,1651.48-353,1651.86-352.74Z" transform="translate(-1360.82 431.34)"/><path class="cls-19" d="M1651.86-352.74l6.42,3.7a1.49,1.49,0,0,1,.69,1.15c0,.42-.31.57-.69.35l-6.42-3.7a1.48,1.48,0,0,1-.69-1.15C1651.17-352.8,1651.48-353,1651.86-352.74Z" transform="translate(-1360.82 431.34)"/><path class="cls-5" d="M1651.86-346.73l6.42,3.7a1.49,1.49,0,0,1,.69,1.15c0,.42-.31.57-.69.35l-6.42-3.7a1.49,1.49,0,0,1-.69-1.15C1651.17-346.8,1651.48-346.95,1651.86-346.73Z" transform="translate(-1360.82 431.34)"/><path class="cls-19" d="M1651.86-346.73l6.42,3.7a1.49,1.49,0,0,1,.69,1.15c0,.42-.31.57-.69.35l-6.42-3.7a1.49,1.49,0,0,1-.69-1.15C1651.17-346.8,1651.48-346.95,1651.86-346.73Z" transform="translate(-1360.82 431.34)"/><path class="cls-5" d="M1668.26-361.32l8.23,4.77a1.49,1.49,0,0,1,.7,1.15c0,.41-.32.57-.7.35l-8.23-4.77a1.48,1.48,0,0,1-.69-1.15C1667.57-361.38,1667.88-361.54,1668.26-361.32Z" transform="translate(-1360.82 431.34)"/><path class="cls-19" d="M1668.26-361.32l8.23,4.77a1.49,1.49,0,0,1,.7,1.15c0,.41-.32.57-.7.35l-8.23-4.77a1.48,1.48,0,0,1-.69-1.15C1667.57-361.38,1667.88-361.54,1668.26-361.32Z" transform="translate(-1360.82 431.34)"/><path class="cls-15" d="M1681-317.89,1736.31-286a1.51,1.51,0,0,1,.69,1.16c0,.41-.31.57-.69.35L1681-316.38a1.48,1.48,0,0,1-.7-1.15C1680.29-317.95,1680.6-318.11,1681-317.89Z" transform="translate(-1360.82 431.34)"/><path class="cls-15" d="M1728.08-296.82l8.23,4.77a1.48,1.48,0,0,1,.69,1.15c0,.41-.31.57-.69.35l-8.23-4.77a1.48,1.48,0,0,1-.69-1.15C1727.39-296.88,1727.7-297,1728.08-296.82Z" transform="translate(-1360.82 431.34)"/><path class="cls-15" d="M1670.07-330.22l55.32,31.85a1.49,1.49,0,0,1,.69,1.15c0,.42-.31.57-.69.35l-55.32-31.85a1.48,1.48,0,0,1-.69-1.15C1669.38-330.28,1669.69-330.44,1670.07-330.22Z" transform="translate(-1360.82 431.34)"/><path class="cls-5" d="M1662.27-358.75l13.71,7.88a1.5,1.5,0,0,1,.7,1.16c0,.41-.31.57-.7.35l-13.71-7.89a1.46,1.46,0,0,1-.7-1.15C1661.57-358.81,1661.88-359,1662.27-358.75Z" transform="translate(-1360.82 431.34)"/><path class="cls-19" d="M1662.27-358.75l13.71,7.88a1.5,1.5,0,0,1,.7,1.16c0,.41-.31.57-.7.35l-13.71-7.89a1.46,1.46,0,0,1-.7-1.15C1661.57-358.81,1661.88-359,1662.27-358.75Z" transform="translate(-1360.82 431.34)"/><path class="cls-5" d="M1678.67-349.31l57.23,33.1a1.49,1.49,0,0,1,.69,1.15c0,.42-.31.57-.69.35l-57.23-33.1A1.49,1.49,0,0,1,1678-349C1678-349.38,1678.29-349.54,1678.67-349.31Z" transform="translate(-1360.82 431.34)"/><path class="cls-19" d="M1678.67-349.31l57.23,33.1a1.49,1.49,0,0,1,.69,1.15c0,.42-.31.57-.69.35l-57.23-33.1A1.49,1.49,0,0,1,1678-349C1678-349.38,1678.29-349.54,1678.67-349.31Z" transform="translate(-1360.82 431.34)"/><path class="cls-11" d="M1662.27-322.58l74,42.7a1.49,1.49,0,0,1,.69,1.15c0,.42-.31.57-.69.35l-74-42.69a1.5,1.5,0,0,1-.7-1.16C1661.57-322.64,1661.88-322.8,1662.27-322.58Z" transform="translate(-1360.82 431.34)"/><path class="cls-5" d="M1651.86-328.58l6.42,3.7a1.48,1.48,0,0,1,.69,1.15c0,.41-.31.57-.69.35l-6.42-3.7a1.49,1.49,0,0,1-.69-1.15C1651.17-328.65,1651.48-328.8,1651.86-328.58Z" transform="translate(-1360.82 431.34)"/><path class="cls-19" d="M1651.86-328.58l6.42,3.7a1.48,1.48,0,0,1,.69,1.15c0,.41-.31.57-.69.35l-6.42-3.7a1.49,1.49,0,0,1-.69-1.15C1651.17-328.65,1651.48-328.8,1651.86-328.58Z" transform="translate(-1360.82 431.34)"/><path class="cls-11" d="M1662.27-316.57l74,42.7a1.48,1.48,0,0,1,.69,1.15c0,.41-.31.57-.69.35l-74-42.7a1.48,1.48,0,0,1-.7-1.15C1661.57-316.64,1661.88-316.79,1662.27-316.57Z" transform="translate(-1360.82 431.34)"/><path class="cls-5" d="M1651.86-322.58l6.42,3.7a1.51,1.51,0,0,1,.69,1.16c0,.41-.31.57-.69.35l-6.42-3.7a1.51,1.51,0,0,1-.69-1.16C1651.17-322.64,1651.48-322.8,1651.86-322.58Z" transform="translate(-1360.82 431.34)"/><path class="cls-19" d="M1651.86-322.58l6.42,3.7a1.51,1.51,0,0,1,.69,1.16c0,.41-.31.57-.69.35l-6.42-3.7a1.51,1.51,0,0,1-.69-1.16C1651.17-322.64,1651.48-322.8,1651.86-322.58Z" transform="translate(-1360.82 431.34)"/><path class="cls-11" d="M1662.27-310.56l74,42.69a1.49,1.49,0,0,1,.69,1.15c0,.42-.31.57-.69.35l-74-42.69a1.48,1.48,0,0,1-.7-1.15C1661.57-310.63,1661.88-310.79,1662.27-310.56Z" transform="translate(-1360.82 431.34)"/><path class="cls-5" d="M1651.86-316.57l6.42,3.7a1.49,1.49,0,0,1,.69,1.15c0,.42-.31.57-.69.35l-6.42-3.7a1.49,1.49,0,0,1-.69-1.15C1651.17-316.64,1651.48-316.79,1651.86-316.57Z" transform="translate(-1360.82 431.34)"/><path class="cls-19" d="M1651.86-316.57l6.42,3.7a1.49,1.49,0,0,1,.69,1.15c0,.42-.31.57-.69.35l-6.42-3.7a1.49,1.49,0,0,1-.69-1.15C1651.17-316.64,1651.48-316.79,1651.86-316.57Z" transform="translate(-1360.82 431.34)"/><g class="cls-20"><path class="cls-15" d="M1641.85-382.8l3.78,2.18a1.51,1.51,0,0,1,.68,1.19V-378c0,.44-.3.62-.68.4l-3.77-2.18a1.52,1.52,0,0,1-.69-1.19v-1.38C1641.17-382.84,1641.48-383,1641.85-382.8Z" transform="translate(-1360.82 431.34)"/><path class="cls-15" d="M1641.85-376.73l3.78,2.17a1.51,1.51,0,0,1,.68,1.19V-372c0,.43-.3.61-.68.39l-3.77-2.18a1.49,1.49,0,0,1-.69-1.18v-1.39C1641.17-376.78,1641.48-376.95,1641.85-376.73Z" transform="translate(-1360.82 431.34)"/><path class="cls-15" d="M1641.85-370.67l3.78,2.18a1.51,1.51,0,0,1,.68,1.19v1.38c0,.44-.3.62-.68.4l-3.77-2.18a1.52,1.52,0,0,1-.69-1.19v-1.38C1641.17-370.71,1641.48-370.89,1641.85-370.67Z" transform="translate(-1360.82 431.34)"/><path class="cls-15" d="M1641.85-364.6l3.78,2.17a1.51,1.51,0,0,1,.68,1.19v1.39c0,.43-.3.61-.68.39l-3.77-2.18a1.5,1.5,0,0,1-.69-1.18v-1.39C1641.17-364.65,1641.48-364.82,1641.85-364.6Z" transform="translate(-1360.82 431.34)"/><path class="cls-15" d="M1641.85-358.54l3.78,2.18a1.51,1.51,0,0,1,.68,1.18v1.39c0,.44-.3.62-.68.4l-3.77-2.18a1.52,1.52,0,0,1-.69-1.19v-1.38C1641.17-358.58,1641.48-358.76,1641.85-358.54Z" transform="translate(-1360.82 431.34)"/><path class="cls-15" d="M1641.85-352.48l3.78,2.18a1.51,1.51,0,0,1,.68,1.19v1.39c0,.43-.3.61-.68.39l-3.77-2.18a1.5,1.5,0,0,1-.69-1.18v-1.39C1641.17-352.52,1641.48-352.69,1641.85-352.48Z" transform="translate(-1360.82 431.34)"/><path class="cls-15" d="M1641.85-346.41l3.78,2.18a1.51,1.51,0,0,1,.68,1.18v1.39c0,.44-.3.61-.68.4l-3.77-2.18a1.52,1.52,0,0,1-.69-1.19V-346C1641.17-346.45,1641.48-346.63,1641.85-346.41Z" transform="translate(-1360.82 431.34)"/><path class="cls-15" d="M1641.85-340.35l3.78,2.18a1.51,1.51,0,0,1,.68,1.19v1.39c0,.43-.3.61-.68.39l-3.77-2.18a1.5,1.5,0,0,1-.69-1.18v-1.39C1641.17-340.39,1641.48-340.56,1641.85-340.35Z" transform="translate(-1360.82 431.34)"/><path class="cls-15" d="M1641.85-334.28l3.78,2.18a1.51,1.51,0,0,1,.68,1.18v1.39c0,.44-.3.61-.68.4l-3.77-2.18a1.52,1.52,0,0,1-.69-1.19v-1.39C1641.17-334.32,1641.48-334.5,1641.85-334.28Z" transform="translate(-1360.82 431.34)"/><path class="cls-15" d="M1641.85-328.22l3.78,2.18a1.51,1.51,0,0,1,.68,1.19v1.39c0,.43-.3.61-.68.39l-3.77-2.18a1.52,1.52,0,0,1-.69-1.18v-1.39C1641.17-328.26,1641.48-328.43,1641.85-328.22Z" transform="translate(-1360.82 431.34)"/><path class="cls-15" d="M1641.85-322.15l3.78,2.18a1.49,1.49,0,0,1,.68,1.18v1.39c0,.44-.3.61-.68.4l-3.77-2.18a1.52,1.52,0,0,1-.69-1.19v-1.39C1641.17-322.19,1641.48-322.37,1641.85-322.15Z" transform="translate(-1360.82 431.34)"/><path class="cls-15" d="M1641.85-316.09l3.78,2.18a1.51,1.51,0,0,1,.68,1.19v1.38c0,.44-.3.62-.68.4l-3.77-2.18a1.52,1.52,0,0,1-.69-1.18v-1.39C1641.17-316.13,1641.48-316.31,1641.85-316.09Z" transform="translate(-1360.82 431.34)"/></g><path class="cls-3" d="M1616.83-402.5l20.4,11.78a3,3,0,0,1,1.37,2.37v23.56c0,.87-.61,1.22-1.37.79l-20.4-11.78a3,3,0,0,1-1.37-2.37v-23.56C1615.46-402.58,1616.07-402.94,1616.83-402.5Z" transform="translate(-1360.82 431.34)"/><path class="cls-5" d="M1618.72-379.15l1.88,1.09a1.48,1.48,0,0,1,.69,1.15c0,.41-.31.57-.69.35l-1.88-1.09a1.49,1.49,0,0,1-.69-1.15C1618-379.21,1618.34-379.37,1618.72-379.15Z" transform="translate(-1360.82 431.34)"/><path class="cls-19" d="M1618.72-379.15l1.88,1.09a1.48,1.48,0,0,1,.69,1.15c0,.41-.31.57-.69.35l-1.88-1.09a1.49,1.49,0,0,1-.69-1.15C1618-379.21,1618.34-379.37,1618.72-379.15Z" transform="translate(-1360.82 431.34)"/><path class="cls-5" d="M1618.72-398.44l1.88,1.09a1.48,1.48,0,0,1,.69,1.15c0,.41-.31.57-.69.35l-1.88-1.09a1.48,1.48,0,0,1-.69-1.15C1618-398.5,1618.34-398.66,1618.72-398.44Z" transform="translate(-1360.82 431.34)"/><path class="cls-19" d="M1618.72-398.44l1.88,1.09a1.48,1.48,0,0,1,.69,1.15c0,.41-.31.57-.69.35l-1.88-1.09a1.48,1.48,0,0,1-.69-1.15C1618-398.5,1618.34-398.66,1618.72-398.44Z" transform="translate(-1360.82 431.34)"/><path class="cls-5" d="M1621.36-393.07l1.88,1.09a1.49,1.49,0,0,1,.69,1.15c0,.42-.31.57-.69.35l-1.88-1.08a1.51,1.51,0,0,1-.69-1.16C1620.67-393.13,1621-393.29,1621.36-393.07Z" transform="translate(-1360.82 431.34)"/><path class="cls-19" d="M1621.36-393.07l1.88,1.09a1.49,1.49,0,0,1,.69,1.15c0,.42-.31.57-.69.35l-1.88-1.08a1.51,1.51,0,0,1-.69-1.16C1620.67-393.13,1621-393.29,1621.36-393.07Z" transform="translate(-1360.82 431.34)"/><path class="cls-5" d="M1621.36-389.22l1.88,1.09a1.48,1.48,0,0,1,.69,1.15c0,.41-.31.57-.69.35l-1.88-1.09a1.48,1.48,0,0,1-.69-1.15C1620.67-389.28,1621-389.44,1621.36-389.22Z" transform="translate(-1360.82 431.34)"/><path class="cls-19" d="M1621.36-389.22l1.88,1.09a1.48,1.48,0,0,1,.69,1.15c0,.41-.31.57-.69.35l-1.88-1.09a1.48,1.48,0,0,1-.69-1.15C1620.67-389.28,1621-389.44,1621.36-389.22Z" transform="translate(-1360.82 431.34)"/><path class="cls-5" d="M1618.72-386.87l1.88,1.09a1.48,1.48,0,0,1,.69,1.15c0,.41-.31.57-.69.35l-1.88-1.09a1.48,1.48,0,0,1-.69-1.15C1618-386.93,1618.34-387.09,1618.72-386.87Z" transform="translate(-1360.82 431.34)"/><path class="cls-19" d="M1618.72-386.87l1.88,1.09a1.48,1.48,0,0,1,.69,1.15c0,.41-.31.57-.69.35l-1.88-1.09a1.48,1.48,0,0,1-.69-1.15C1618-386.93,1618.34-387.09,1618.72-386.87Z" transform="translate(-1360.82 431.34)"/><path class="cls-5" d="M1621.36-381.49l1.88,1.08a1.5,1.5,0,0,1,.69,1.16c0,.41-.31.57-.69.35l-1.88-1.09a1.49,1.49,0,0,1-.69-1.15C1620.67-381.56,1621-381.71,1621.36-381.49Z" transform="translate(-1360.82 431.34)"/><path class="cls-19" d="M1621.36-381.49l1.88,1.08a1.5,1.5,0,0,1,.69,1.16c0,.41-.31.57-.69.35l-1.88-1.09a1.49,1.49,0,0,1-.69-1.15C1620.67-381.56,1621-381.71,1621.36-381.49Z" transform="translate(-1360.82 431.34)"/><path class="cls-5" d="M1623.87-395.47l11.46,6.62a1.48,1.48,0,0,1,.7,1.15c0,.42-.31.58-.7.35L1623.87-394a1.46,1.46,0,0,1-.7-1.15C1623.17-395.53,1623.48-395.69,1623.87-395.47Z" transform="translate(-1360.82 431.34)"/><path class="cls-21" d="M1623.87-395.47l11.46,6.62a1.48,1.48,0,0,1,.7,1.15c0,.42-.31.58-.7.35L1623.87-394a1.46,1.46,0,0,1-.7-1.15C1623.17-395.53,1623.48-395.69,1623.87-395.47Z" transform="translate(-1360.82 431.34)"/><path class="cls-5" d="M1623.87-376.18l11.46,6.62a1.48,1.48,0,0,1,.7,1.15c0,.42-.31.58-.7.35l-11.46-6.62a1.46,1.46,0,0,1-.7-1.15C1623.17-376.24,1623.48-376.4,1623.87-376.18Z" transform="translate(-1360.82 431.34)"/><path class="cls-21" d="M1623.87-376.18l11.46,6.62a1.48,1.48,0,0,1,.7,1.15c0,.42-.31.58-.7.35l-11.46-6.62a1.46,1.46,0,0,1-.7-1.15C1623.17-376.24,1623.48-376.4,1623.87-376.18Z" transform="translate(-1360.82 431.34)"/><path class="cls-5" d="M1626.51-390.1l8.82,5.11a1.48,1.48,0,0,1,.7,1.15c0,.42-.31.57-.7.35l-8.82-5.1a1.5,1.5,0,0,1-.7-1.16C1625.81-390.16,1626.12-390.32,1626.51-390.1Z" transform="translate(-1360.82 431.34)"/><path class="cls-21" d="M1626.51-390.1l8.82,5.11a1.48,1.48,0,0,1,.7,1.15c0,.42-.31.57-.7.35l-8.82-5.1a1.5,1.5,0,0,1-.7-1.16C1625.81-390.16,1626.12-390.32,1626.51-390.1Z" transform="translate(-1360.82 431.34)"/><path class="cls-5" d="M1626.51-386.24l8.82,5.11a1.46,1.46,0,0,1,.7,1.15c0,.41-.31.57-.7.35l-8.82-5.11a1.46,1.46,0,0,1-.7-1.15C1625.81-386.3,1626.12-386.46,1626.51-386.24Z" transform="translate(-1360.82 431.34)"/><path class="cls-21" d="M1626.51-386.24l8.82,5.11a1.46,1.46,0,0,1,.7,1.15c0,.41-.31.57-.7.35l-8.82-5.11a1.46,1.46,0,0,1-.7-1.15C1625.81-386.3,1626.12-386.46,1626.51-386.24Z" transform="translate(-1360.82 431.34)"/><path class="cls-5" d="M1623.87-383.9l11.46,6.63a1.46,1.46,0,0,1,.7,1.15c0,.41-.31.57-.7.35l-11.46-6.62a1.48,1.48,0,0,1-.7-1.15C1623.17-384,1623.48-384.12,1623.87-383.9Z" transform="translate(-1360.82 431.34)"/><path class="cls-21" d="M1623.87-383.9l11.46,6.63a1.46,1.46,0,0,1,.7,1.15c0,.41-.31.57-.7.35l-11.46-6.62a1.48,1.48,0,0,1-.7-1.15C1623.17-384,1623.48-384.12,1623.87-383.9Z" transform="translate(-1360.82 431.34)"/><path class="cls-5" d="M1626.51-378.52l8.82,5.1a1.5,1.5,0,0,1,.7,1.16c0,.41-.31.57-.7.35l-8.82-5.11a1.48,1.48,0,0,1-.7-1.15C1625.81-378.59,1626.12-378.74,1626.51-378.52Z" transform="translate(-1360.82 431.34)"/><path class="cls-21" d="M1626.51-378.52l8.82,5.1a1.5,1.5,0,0,1,.7,1.16c0,.41-.31.57-.7.35l-8.82-5.11a1.48,1.48,0,0,1-.7-1.15C1625.81-378.59,1626.12-378.74,1626.51-378.52Z" transform="translate(-1360.82 431.34)"/><path class="cls-3" d="M1616.83-371.35l20.4,11.78a3,3,0,0,1,1.37,2.37v46.55c0,.87-.61,1.23-1.37.79l-20.4-11.78a3,3,0,0,1-1.37-2.37v-46.55C1615.46-371.43,1616.07-371.79,1616.83-371.35Z" transform="translate(-1360.82 431.34)"/><path class="cls-5" d="M1618.72-367.29l1.88,1.09a1.48,1.48,0,0,1,.69,1.15c0,.41-.31.57-.69.35l-1.88-1.09a1.48,1.48,0,0,1-.69-1.15C1618-367.35,1618.34-367.51,1618.72-367.29Z" transform="translate(-1360.82 431.34)"/><path class="cls-19" d="M1618.72-367.29l1.88,1.09a1.48,1.48,0,0,1,.69,1.15c0,.41-.31.57-.69.35l-1.88-1.09a1.48,1.48,0,0,1-.69-1.15C1618-367.35,1618.34-367.51,1618.72-367.29Z" transform="translate(-1360.82 431.34)"/><path class="cls-5" d="M1621.36-361.92l1.88,1.09a1.49,1.49,0,0,1,.69,1.15c0,.42-.31.57-.69.35l-1.88-1.08a1.49,1.49,0,0,1-.69-1.15C1620.67-362,1621-362.14,1621.36-361.92Z" transform="translate(-1360.82 431.34)"/><path class="cls-19" d="M1621.36-361.92l1.88,1.09a1.49,1.49,0,0,1,.69,1.15c0,.42-.31.57-.69.35l-1.88-1.08a1.49,1.49,0,0,1-.69-1.15C1620.67-362,1621-362.14,1621.36-361.92Z" transform="translate(-1360.82 431.34)"/><path class="cls-5" d="M1621.36-358.07l1.88,1.09a1.49,1.49,0,0,1,.69,1.15c0,.41-.31.57-.69.35l-1.88-1.09a1.48,1.48,0,0,1-.69-1.15C1620.67-358.13,1621-358.29,1621.36-358.07Z" transform="translate(-1360.82 431.34)"/><path class="cls-19" d="M1621.36-358.07l1.88,1.09a1.49,1.49,0,0,1,.69,1.15c0,.41-.31.57-.69.35l-1.88-1.09a1.48,1.48,0,0,1-.69-1.15C1620.67-358.13,1621-358.29,1621.36-358.07Z" transform="translate(-1360.82 431.34)"/><path class="cls-5" d="M1618.72-355.72l1.88,1.09a1.48,1.48,0,0,1,.69,1.15c0,.41-.31.57-.69.35l-1.88-1.09a1.48,1.48,0,0,1-.69-1.15C1618-355.78,1618.34-355.94,1618.72-355.72Z" transform="translate(-1360.82 431.34)"/><path class="cls-19" d="M1618.72-355.72l1.88,1.09a1.48,1.48,0,0,1,.69,1.15c0,.41-.31.57-.69.35l-1.88-1.09a1.48,1.48,0,0,1-.69-1.15C1618-355.78,1618.34-355.94,1618.72-355.72Z" transform="translate(-1360.82 431.34)"/><path class="cls-5" d="M1623.87-364.32l11.46,6.62a1.48,1.48,0,0,1,.7,1.16c0,.41-.31.57-.7.35l-11.46-6.63a1.46,1.46,0,0,1-.7-1.15C1623.17-364.38,1623.48-364.54,1623.87-364.32Z" transform="translate(-1360.82 431.34)"/><path class="cls-21" d="M1623.87-364.32l11.46,6.62a1.48,1.48,0,0,1,.7,1.16c0,.41-.31.57-.7.35l-11.46-6.63a1.46,1.46,0,0,1-.7-1.15C1623.17-364.38,1623.48-364.54,1623.87-364.32Z" transform="translate(-1360.82 431.34)"/><path class="cls-5" d="M1626.51-358.95l8.82,5.11a1.48,1.48,0,0,1,.7,1.15c0,.42-.31.58-.7.35l-8.82-5.1a1.48,1.48,0,0,1-.7-1.15C1625.81-359,1626.12-359.17,1626.51-358.95Z" transform="translate(-1360.82 431.34)"/><path class="cls-21" d="M1626.51-358.95l8.82,5.11a1.48,1.48,0,0,1,.7,1.15c0,.42-.31.58-.7.35l-8.82-5.1a1.48,1.48,0,0,1-.7-1.15C1625.81-359,1626.12-359.17,1626.51-358.95Z" transform="translate(-1360.82 431.34)"/><path class="cls-5" d="M1626.51-355.09l8.82,5.11a1.48,1.48,0,0,1,.7,1.15c0,.42-.31.57-.7.35l-8.82-5.11a1.46,1.46,0,0,1-.7-1.15C1625.81-355.15,1626.12-355.31,1626.51-355.09Z" transform="translate(-1360.82 431.34)"/><path class="cls-21" d="M1626.51-355.09l8.82,5.11a1.48,1.48,0,0,1,.7,1.15c0,.42-.31.57-.7.35l-8.82-5.11a1.46,1.46,0,0,1-.7-1.15C1625.81-355.15,1626.12-355.31,1626.51-355.09Z" transform="translate(-1360.82 431.34)"/><path class="cls-5" d="M1623.87-352.74l11.46,6.62a1.46,1.46,0,0,1,.7,1.15c0,.41-.31.57-.7.35l-11.46-6.62a1.48,1.48,0,0,1-.7-1.15C1623.17-352.81,1623.48-353,1623.87-352.74Z" transform="translate(-1360.82 431.34)"/><path class="cls-21" d="M1623.87-352.74l11.46,6.62a1.46,1.46,0,0,1,.7,1.15c0,.41-.31.57-.7.35l-11.46-6.62a1.48,1.48,0,0,1-.7-1.15C1623.17-352.81,1623.48-353,1623.87-352.74Z" transform="translate(-1360.82 431.34)"/><path class="cls-5" d="M1621.36-350.32l1.88,1.09a1.48,1.48,0,0,1,.69,1.15c0,.41-.31.57-.69.35l-1.88-1.09a1.48,1.48,0,0,1-.69-1.15C1620.67-350.38,1621-350.54,1621.36-350.32Z" transform="translate(-1360.82 431.34)"/><path class="cls-19" d="M1621.36-350.32l1.88,1.09a1.48,1.48,0,0,1,.69,1.15c0,.41-.31.57-.69.35l-1.88-1.09a1.48,1.48,0,0,1-.69-1.15C1620.67-350.38,1621-350.54,1621.36-350.32Z" transform="translate(-1360.82 431.34)"/><path class="cls-5" d="M1621.36-346.47l1.88,1.09a1.48,1.48,0,0,1,.69,1.15c0,.41-.31.57-.69.35l-1.88-1.09a1.49,1.49,0,0,1-.69-1.15C1620.67-346.53,1621-346.69,1621.36-346.47Z" transform="translate(-1360.82 431.34)"/><path class="cls-19" d="M1621.36-346.47l1.88,1.09a1.48,1.48,0,0,1,.69,1.15c0,.41-.31.57-.69.35l-1.88-1.09a1.49,1.49,0,0,1-.69-1.15C1620.67-346.53,1621-346.69,1621.36-346.47Z" transform="translate(-1360.82 431.34)"/><path class="cls-5" d="M1626.51-347.35l8.82,5.11a1.48,1.48,0,0,1,.7,1.15c0,.41-.31.57-.7.35l-8.82-5.11a1.46,1.46,0,0,1-.7-1.15C1625.81-347.41,1626.12-347.57,1626.51-347.35Z" transform="translate(-1360.82 431.34)"/><path class="cls-21" d="M1626.51-347.35l8.82,5.11a1.48,1.48,0,0,1,.7,1.15c0,.41-.31.57-.7.35l-8.82-5.11a1.46,1.46,0,0,1-.7-1.15C1625.81-347.41,1626.12-347.57,1626.51-347.35Z" transform="translate(-1360.82 431.34)"/><path class="cls-5" d="M1626.51-343.49l8.82,5.11a1.46,1.46,0,0,1,.7,1.15c0,.41-.31.57-.7.35l-8.82-5.11a1.48,1.48,0,0,1-.7-1.15C1625.81-343.55,1626.12-343.71,1626.51-343.49Z" transform="translate(-1360.82 431.34)"/><path class="cls-21" d="M1626.51-343.49l8.82,5.11a1.46,1.46,0,0,1,.7,1.15c0,.41-.31.57-.7.35l-8.82-5.11a1.48,1.48,0,0,1-.7-1.15C1625.81-343.55,1626.12-343.71,1626.51-343.49Z" transform="translate(-1360.82 431.34)"/><path class="cls-5" d="M1618.72-336.38l1.88,1.08a1.51,1.51,0,0,1,.69,1.16c0,.41-.31.57-.69.35l-1.88-1.09A1.49,1.49,0,0,1,1618-336C1618-336.45,1618.34-336.6,1618.72-336.38Z" transform="translate(-1360.82 431.34)"/><path class="cls-19" d="M1618.72-336.38l1.88,1.08a1.51,1.51,0,0,1,.69,1.16c0,.41-.31.57-.69.35l-1.88-1.09A1.49,1.49,0,0,1,1618-336C1618-336.45,1618.34-336.6,1618.72-336.38Z" transform="translate(-1360.82 431.34)"/><path class="cls-5" d="M1623.87-333.41l11.46,6.62a1.48,1.48,0,0,1,.7,1.15c0,.42-.31.58-.7.36l-11.46-6.63a1.46,1.46,0,0,1-.7-1.15C1623.17-333.47,1623.48-333.63,1623.87-333.41Z" transform="translate(-1360.82 431.34)"/><path class="cls-21" d="M1623.87-333.41l11.46,6.62a1.48,1.48,0,0,1,.7,1.15c0,.42-.31.58-.7.36l-11.46-6.63a1.46,1.46,0,0,1-.7-1.15C1623.17-333.47,1623.48-333.63,1623.87-333.41Z" transform="translate(-1360.82 431.34)"/><path class="cls-5" d="M1621.36-331l1.88,1.08a1.49,1.49,0,0,1,.69,1.15c0,.42-.31.58-.69.36l-1.88-1.09a1.49,1.49,0,0,1-.69-1.15C1620.67-331,1621-331.2,1621.36-331Z" transform="translate(-1360.82 431.34)"/><path class="cls-19" d="M1621.36-331l1.88,1.08a1.49,1.49,0,0,1,.69,1.15c0,.42-.31.58-.69.36l-1.88-1.09a1.49,1.49,0,0,1-.69-1.15C1620.67-331,1621-331.2,1621.36-331Z" transform="translate(-1360.82 431.34)"/><path class="cls-5" d="M1621.36-327.13l1.88,1.08a1.49,1.49,0,0,1,.69,1.15c0,.42-.31.57-.69.35l-1.88-1.08a1.49,1.49,0,0,1-.69-1.15C1620.67-327.2,1621-327.36,1621.36-327.13Z" transform="translate(-1360.82 431.34)"/><path class="cls-19" d="M1621.36-327.13l1.88,1.08a1.49,1.49,0,0,1,.69,1.15c0,.42-.31.57-.69.35l-1.88-1.08a1.49,1.49,0,0,1-.69-1.15C1620.67-327.2,1621-327.36,1621.36-327.13Z" transform="translate(-1360.82 431.34)"/><path class="cls-5" d="M1626.51-328l8.82,5.1a1.5,1.5,0,0,1,.7,1.16c0,.41-.31.57-.7.35l-8.82-5.11a1.48,1.48,0,0,1-.7-1.15C1625.81-328.08,1626.12-328.23,1626.51-328Z" transform="translate(-1360.82 431.34)"/><path class="cls-21" d="M1626.51-328l8.82,5.1a1.5,1.5,0,0,1,.7,1.16c0,.41-.31.57-.7.35l-8.82-5.11a1.48,1.48,0,0,1-.7-1.15C1625.81-328.08,1626.12-328.23,1626.51-328Z" transform="translate(-1360.82 431.34)"/><path class="cls-5" d="M1626.51-324.15l8.82,5.1a1.48,1.48,0,0,1,.7,1.15c0,.42-.31.58-.7.35l-8.82-5.1a1.48,1.48,0,0,1-.7-1.15C1625.81-324.22,1626.12-324.38,1626.51-324.15Z" transform="translate(-1360.82 431.34)"/><path class="cls-21" d="M1626.51-324.15l8.82,5.1a1.48,1.48,0,0,1,.7,1.15c0,.42-.31.58-.7.35l-8.82-5.1a1.48,1.48,0,0,1-.7-1.15C1625.81-324.22,1626.12-324.38,1626.51-324.15Z" transform="translate(-1360.82 431.34)"/><path class="cls-5" d="M1621.36-342.64l1.88,1.08a1.49,1.49,0,0,1,.69,1.15c0,.42-.31.58-.69.35l-1.88-1.08a1.49,1.49,0,0,1-.69-1.15C1620.67-342.71,1621-342.86,1621.36-342.64Z" transform="translate(-1360.82 431.34)"/><path class="cls-19" d="M1621.36-342.64l1.88,1.08a1.49,1.49,0,0,1,.69,1.15c0,.42-.31.58-.69.35l-1.88-1.08a1.49,1.49,0,0,1-.69-1.15C1620.67-342.71,1621-342.86,1621.36-342.64Z" transform="translate(-1360.82 431.34)"/><path class="cls-5" d="M1618.72-340.29l1.88,1.08a1.49,1.49,0,0,1,.69,1.15c0,.42-.31.58-.69.35l-1.88-1.08a1.49,1.49,0,0,1-.69-1.15C1618-340.36,1618.34-340.51,1618.72-340.29Z" transform="translate(-1360.82 431.34)"/><path class="cls-19" d="M1618.72-340.29l1.88,1.08a1.49,1.49,0,0,1,.69,1.15c0,.42-.31.58-.69.35l-1.88-1.08a1.49,1.49,0,0,1-.69-1.15C1618-340.36,1618.34-340.51,1618.72-340.29Z" transform="translate(-1360.82 431.34)"/><path class="cls-5" d="M1626.51-339.66l8.82,5.1a1.5,1.5,0,0,1,.7,1.16c0,.41-.31.57-.7.35l-8.82-5.11a1.48,1.48,0,0,1-.7-1.15C1625.81-339.73,1626.12-339.88,1626.51-339.66Z" transform="translate(-1360.82 431.34)"/><path class="cls-21" d="M1626.51-339.66l8.82,5.1a1.5,1.5,0,0,1,.7,1.16c0,.41-.31.57-.7.35l-8.82-5.11a1.48,1.48,0,0,1-.7-1.15C1625.81-339.73,1626.12-339.88,1626.51-339.66Z" transform="translate(-1360.82 431.34)"/><path class="cls-5" d="M1623.87-337.32l11.46,6.62a1.48,1.48,0,0,1,.7,1.15c0,.42-.31.58-.7.35l-11.46-6.62a1.46,1.46,0,0,1-.7-1.15C1623.17-337.38,1623.48-337.54,1623.87-337.32Z" transform="translate(-1360.82 431.34)"/><path class="cls-21" d="M1623.87-337.32l11.46,6.62a1.48,1.48,0,0,1,.7,1.15c0,.42-.31.58-.7.35l-11.46-6.62a1.46,1.46,0,0,1-.7-1.15C1623.17-337.38,1623.48-337.54,1623.87-337.32Z" transform="translate(-1360.82 431.34)"/><path class="cls-5" d="M1618.72-324.73l1.88,1.08a1.51,1.51,0,0,1,.69,1.16c0,.41-.31.57-.69.35l-1.88-1.09a1.49,1.49,0,0,1-.69-1.15C1618-324.8,1618.34-324.95,1618.72-324.73Z" transform="translate(-1360.82 431.34)"/><path class="cls-19" d="M1618.72-324.73l1.88,1.08a1.51,1.51,0,0,1,.69,1.16c0,.41-.31.57-.69.35l-1.88-1.09a1.49,1.49,0,0,1-.69-1.15C1618-324.8,1618.34-324.95,1618.72-324.73Z" transform="translate(-1360.82 431.34)"/><path class="cls-5" d="M1623.87-321.76l11.46,6.62a1.5,1.5,0,0,1,.7,1.16c0,.41-.31.57-.7.35l-11.46-6.63a1.46,1.46,0,0,1-.7-1.15C1623.17-321.82,1623.48-322,1623.87-321.76Z" transform="translate(-1360.82 431.34)"/><path class="cls-21" d="M1623.87-321.76l11.46,6.62a1.5,1.5,0,0,1,.7,1.16c0,.41-.31.57-.7.35l-11.46-6.63a1.46,1.46,0,0,1-.7-1.15C1623.17-321.82,1623.48-322,1623.87-321.76Z" transform="translate(-1360.82 431.34)"/></g></g><g id="Window-3" data-name="Window"><g class="cls-22"><path class="cls-4" d="M1730.33-305.92v76.38a3.54,3.54,0,0,0,1.59,2.75l43.88,25.31a.92.92,0,0,0,.53.15l.2,0,.13-.05.09,0,.09-.07a.32.32,0,0,0,.09-.08,1.22,1.22,0,0,0,.29-.41,1.91,1.91,0,0,0,.17-.8v-76a3.54,3.54,0,0,0-1.59-2.75l-43.88-25.29a1.15,1.15,0,0,0-1.07-.13l-.13.08h0l-.11.1,0,.06a.22.22,0,0,0,0,.08.51.51,0,0,0-.1.21.49.49,0,0,0,0,.14s0,0,0,0a.58.58,0,0,0,0,.14C1730.34-306,1730.33-306,1730.33-305.92Z" transform="translate(-1360.82 431.34)"/></g><path class="cls-5" d="M1730.85-307a1.15,1.15,0,0,1,1.07.13l43.88,25.29a3.54,3.54,0,0,1,1.59,2.75v5.19l2.53-1.46v-5.15a3.51,3.51,0,0,0-1.59-2.75l-43.88-25.29a1.11,1.11,0,0,0-1.15-.09C1733-308.18,1731.19-307.15,1730.85-307Z" transform="translate(-1360.82 431.34)"/><path class="cls-5" d="M1730.34-305.93c0-1,.71-1.41,1.58-.9l43.88,25.29a3.48,3.48,0,0,1,1.59,2.74v5.19l-47.05-27.11Z" transform="translate(-1360.82 431.34)"/><g class="cls-17"><path class="cls-15" d="M1731.92-306.83l43.88,25.29a3.32,3.32,0,0,1,1.12,1.17l2.51-1.44a3.16,3.16,0,0,0-1.1-1.16l-43.88-25.29a1.11,1.11,0,0,0-1.15-.09l-2.44,1.38A1.11,1.11,0,0,1,1731.92-306.83Z" transform="translate(-1360.82 431.34)"/></g><path class="cls-9" d="M1779.92-275.07v-5.15a3.21,3.21,0,0,0-.49-1.59l-2.52,1.44a3.15,3.15,0,0,1,.48,1.57v5.19Z" transform="translate(-1360.82 431.34)"/><path class="cls-4" d="M1775.08-279.41a2.38,2.38,0,0,1,.9,1.9c0,.76-.41,1.14-.9.86a2.4,2.4,0,0,1-.9-1.9C1774.18-279.31,1774.59-279.7,1775.08-279.41Z" transform="translate(-1360.82 431.34)"/><path class="cls-4" d="M1771.85-281.28a2.37,2.37,0,0,1,.9,1.9c0,.76-.4,1.15-.9.86a2.35,2.35,0,0,1-.89-1.89C1771-281.18,1771.36-281.56,1771.85-281.28Z" transform="translate(-1360.82 431.34)"/><path class="cls-4" d="M1768.63-283.14a2.35,2.35,0,0,1,.89,1.89c0,.77-.4,1.15-.89.87a2.37,2.37,0,0,1-.9-1.9C1767.73-283,1768.13-283.43,1768.63-283.14Z" transform="translate(-1360.82 431.34)"/><g class="cls-23"><path class="cls-3" d="M1776.8-201.47l.2-.12.49-.27h0l.26-.15h0l.42-.24.85-.47.2-.11a.8.8,0,0,0,.27-.22,1.18,1.18,0,0,0,.21-.32,1.89,1.89,0,0,0,.19-.84v-70.84l-2.53,1.46v70.81a2.36,2.36,0,0,1-.17.8,1.22,1.22,0,0,1-.29.41.18.18,0,0,1-.09.08A.08.08,0,0,1,1776.8-201.47Z" transform="translate(-1360.82 431.34)"/></g><path class="cls-5" d="M1734-292a.23.23,0,0,1,.08-.2l1.14-1h.08a.2.2,0,0,1,.09.11.34.34,0,0,1,0,.16v.8a.91.91,0,0,1,0,.21.57.57,0,0,1-.08.13l-.61.55.61,1.25.08.21a1.57,1.57,0,0,1,0,.25v.79a.16.16,0,0,1,0,.12s0,0-.09,0l0,0a.25.25,0,0,1,0-.07l-1.14-2.36a.67.67,0,0,1-.08-.29Z" transform="translate(-1360.82 431.34)"/><path class="cls-5" d="M1738.15-293.06a.34.34,0,0,1,.09-.14s.09,0,.17,0l.42.24a.2.2,0,0,1,.09.11.34.34,0,0,1,0,.16.22.22,0,0,1,0,.08l-2,6.07a.22.22,0,0,1-.08.13s-.09,0-.17,0l-.41-.23a.2.2,0,0,1-.09-.11.34.34,0,0,1,0-.16s0-.05,0-.08Z" transform="translate(-1360.82 431.34)"/><path class="cls-5" d="M1741.18-287.22a.23.23,0,0,1-.08.2l-1.14,1h-.06l0,0s-.07,0-.09-.11a.28.28,0,0,1,0-.15v-.8a1.09,1.09,0,0,1,0-.22.42.42,0,0,1,.08-.12l.6-.55-.6-1.25a1.45,1.45,0,0,1-.08-.21,1.69,1.69,0,0,1,0-.25v-.79a.16.16,0,0,1,0-.12s0,0,.09,0l0,0a.14.14,0,0,1,.06.07l1.14,2.36a.67.67,0,0,1,.08.29Z" transform="translate(-1360.82 431.34)"/><path class="cls-5" d="M1744.35-284.11a.33.33,0,0,1,.11.14.45.45,0,0,1,0,.2v.87a.2.2,0,0,1,0,.14.09.09,0,0,1-.11,0l-.54-.31a.33.33,0,0,1-.11-.14.45.45,0,0,1,0-.19v-.88a.2.2,0,0,1,0-.14.09.09,0,0,1,.11,0Z" transform="translate(-1360.82 431.34)"/><path class="cls-5" d="M1746.15-283.07a.33.33,0,0,1,.11.14.43.43,0,0,1,0,.19v.88a.2.2,0,0,1,0,.14.09.09,0,0,1-.11,0l-.54-.31a.33.33,0,0,1-.11-.14.45.45,0,0,1,0-.19v-.88a.2.2,0,0,1,0-.14.09.09,0,0,1,.11,0Z" transform="translate(-1360.82 431.34)"/><path class="cls-5" d="M1748-282a.42.42,0,0,1,.11.14.43.43,0,0,1,0,.19v.88a.2.2,0,0,1,0,.14.09.09,0,0,1-.11,0l-.54-.32a.25.25,0,0,1-.11-.13.49.49,0,0,1,0-.2v-.87a.2.2,0,0,1,0-.14.09.09,0,0,1,.11,0Z" transform="translate(-1360.82 431.34)"/><path class="cls-5" d="M1734.46-285l26.36,15.22a1.19,1.19,0,0,1,.57.93c0,.34-.25.47-.57.29l-26.36-15.22a1.21,1.21,0,0,1-.56-.94C1733.9-285.09,1734.15-285.22,1734.46-285Z" transform="translate(-1360.82 431.34)"/><path class="cls-11" d="M1742.92-265.51l26.36,15.22a1.22,1.22,0,0,1,.57.94c0,.34-.26.46-.57.28l-26.36-15.22a1.21,1.21,0,0,1-.56-.93C1742.36-265.56,1742.61-265.69,1742.92-265.51Z" transform="translate(-1360.82 431.34)"/><path class="cls-11" d="M1742.92-255.74l12.62,7.29a1.21,1.21,0,0,1,.56.94c0,.33-.25.46-.56.28l-12.62-7.29a1.21,1.21,0,0,1-.56-.94C1742.36-255.79,1742.61-255.92,1742.92-255.74Z" transform="translate(-1360.82 431.34)"/><path class="cls-5" d="M1763-268.56l10.5,6a1.22,1.22,0,0,1,.57.94c0,.33-.26.46-.57.28l-10.5-6a1.21,1.21,0,0,1-.56-.94C1762.45-268.61,1762.7-268.74,1763-268.56Z" transform="translate(-1360.82 431.34)"/><path class="cls-5" d="M1734.46-231.33l26.36,15.22a1.2,1.2,0,0,1,.57.94c0,.34-.25.47-.57.29l-26.36-15.23a1.19,1.19,0,0,1-.56-.93C1733.9-231.38,1734.15-231.51,1734.46-231.33Z" transform="translate(-1360.82 431.34)"/><path class="cls-5" d="M1763-214.84l10.5,6a1.22,1.22,0,0,1,.57.93c0,.34-.26.47-.57.29l-10.5-6a1.21,1.21,0,0,1-.56-.94C1762.45-214.9,1762.7-215,1763-214.84Z" transform="translate(-1360.82 431.34)"/><path class="cls-5" d="M1763-229.47l10.5,6a1.22,1.22,0,0,1,.57.94c0,.34-.26.46-.57.28l-10.5-6a1.21,1.21,0,0,1-.56-.93C1762.45-229.52,1762.7-229.65,1763-229.47Z" transform="translate(-1360.82 431.34)"/><path class="cls-5" d="M1763-224.59l10.5,6.05a1.19,1.19,0,0,1,.57.93c0,.34-.26.47-.57.29l-10.5-6.05a1.19,1.19,0,0,1-.56-.93C1762.45-224.64,1762.7-224.77,1763-224.59Z" transform="translate(-1360.82 431.34)"/><path class="cls-5" d="M1754.05-234.65l5.9,3.4a1.2,1.2,0,0,1,.57.94c0,.34-.25.46-.57.28l-5.9-3.4a1.21,1.21,0,0,1-.56-.94C1753.49-234.71,1753.74-234.83,1754.05-234.65Z" transform="translate(-1360.82 431.34)"/><path class="cls-5" d="M1734.46-280.15l15.38,8.87a1.21,1.21,0,0,1,.56.94c0,.34-.25.46-.56.29l-15.38-8.88a1.21,1.21,0,0,1-.56-.93C1733.9-280.2,1734.15-280.33,1734.46-280.15Z" transform="translate(-1360.82 431.34)"/><path class="cls-19" d="M1734.46-280.15l15.38,8.87a1.21,1.21,0,0,1,.56.94c0,.34-.25.46-.56.29l-15.38-8.88a1.21,1.21,0,0,1-.56-.93C1733.9-280.2,1734.15-280.33,1734.46-280.15Z" transform="translate(-1360.82 431.34)"/><path class="cls-5" d="M1734.46-275.27l5.22,3a1.18,1.18,0,0,1,.56.93c0,.34-.25.47-.56.29l-5.22-3a1.21,1.21,0,0,1-.56-.94C1733.9-275.33,1734.15-275.45,1734.46-275.27Z" transform="translate(-1360.82 431.34)"/><path class="cls-19" d="M1734.46-275.27l5.22,3a1.18,1.18,0,0,1,.56.93c0,.34-.25.47-.56.29l-5.22-3a1.21,1.21,0,0,1-.56-.94C1733.9-275.33,1734.15-275.45,1734.46-275.27Z" transform="translate(-1360.82 431.34)"/><path class="cls-5" d="M1734.46-270.39l5.22,3a1.21,1.21,0,0,1,.56.93c0,.34-.25.47-.56.29l-5.22-3a1.21,1.21,0,0,1-.56-.93C1733.9-270.44,1734.15-270.57,1734.46-270.39Z" transform="translate(-1360.82 431.34)"/><path class="cls-19" d="M1734.46-270.39l5.22,3a1.21,1.21,0,0,1,.56.93c0,.34-.25.47-.56.29l-5.22-3a1.21,1.21,0,0,1-.56-.93C1733.9-270.44,1734.15-270.57,1734.46-270.39Z" transform="translate(-1360.82 431.34)"/><path class="cls-5" d="M1734.46-265.51l5.22,3a1.21,1.21,0,0,1,.56.94c0,.34-.25.46-.56.28l-5.22-3a1.18,1.18,0,0,1-.56-.93C1733.9-265.56,1734.15-265.69,1734.46-265.51Z" transform="translate(-1360.82 431.34)"/><path class="cls-19" d="M1734.46-265.51l5.22,3a1.21,1.21,0,0,1,.56.94c0,.33-.25.46-.56.28l-5.22-3a1.21,1.21,0,0,1-.56-.93C1733.9-265.56,1734.15-265.69,1734.46-265.51Z" transform="translate(-1360.82 431.34)"/><path class="cls-24" d="M1742.92-260.62l15.38,8.87a1.21,1.21,0,0,1,.56.93c0,.34-.25.47-.56.29l-15.38-8.87a1.21,1.21,0,0,1-.56-.94C1742.36-260.68,1742.61-260.8,1742.92-260.62Z" transform="translate(-1360.82 431.34)"/><path class="cls-24" d="M1760.48-250.49l6.69,3.87a1.21,1.21,0,0,1,.56.94c0,.33-.25.46-.56.28l-6.69-3.87a1.21,1.21,0,0,1-.56-.94C1759.92-250.54,1760.17-250.67,1760.48-250.49Z" transform="translate(-1360.82 431.34)"/><path class="cls-19" d="M1742.92-260.62l15.38,8.87a1.21,1.21,0,0,1,.56.93c0,.34-.25.47-.56.29l-15.38-8.87a1.21,1.21,0,0,1-.56-.94C1742.36-260.68,1742.61-260.8,1742.92-260.62Z" transform="translate(-1360.82 431.34)"/><path class="cls-19" d="M1760.48-250.49l6.69,3.87a1.21,1.21,0,0,1,.56.94c0,.33-.25.46-.56.28l-6.69-3.87a1.21,1.21,0,0,1-.56-.94C1759.92-250.54,1760.17-250.67,1760.48-250.49Z" transform="translate(-1360.82 431.34)"/><path class="cls-5" d="M1734.46-260.62l5.22,3a1.19,1.19,0,0,1,.56.93c0,.34-.25.47-.56.29l-5.22-3a1.21,1.21,0,0,1-.56-.94C1733.9-260.67,1734.15-260.8,1734.46-260.62Z" transform="translate(-1360.82 431.34)"/><path class="cls-19" d="M1734.46-260.62l5.22,3a1.19,1.19,0,0,1,.56.93c0,.34-.25.47-.56.29l-5.22-3a1.21,1.21,0,0,1-.56-.94C1733.9-260.67,1734.15-260.8,1734.46-260.62Z" transform="translate(-1360.82 431.34)"/><path class="cls-5" d="M1752-270l6.69,3.88a1.21,1.21,0,0,1,.56.93c0,.34-.25.47-.56.29l-6.69-3.87a1.21,1.21,0,0,1-.56-.94C1751.46-270.07,1751.71-270.19,1752-270Z" transform="translate(-1360.82 431.34)"/><path class="cls-19" d="M1752-270l6.69,3.88a1.21,1.21,0,0,1,.56.93c0,.34-.25.47-.56.29l-6.69-3.87a1.21,1.21,0,0,1-.56-.94C1751.46-270.07,1751.71-270.19,1752-270Z" transform="translate(-1360.82 431.34)"/><path class="cls-15" d="M1749.26-247.2l15.38,8.87a1.21,1.21,0,0,1,.56.94c0,.33-.25.46-.56.28L1749.26-246a1.21,1.21,0,0,1-.56-.94C1748.7-247.25,1749-247.38,1749.26-247.2Z" transform="translate(-1360.82 431.34)"/><path class="cls-15" d="M1758.14-237.18l15.37,8.88a1.2,1.2,0,0,1,.57.93c0,.34-.26.47-.57.29l-15.37-8.87a1.2,1.2,0,0,1-.57-.94C1757.57-237.23,1757.82-237.36,1758.14-237.18Z" transform="translate(-1360.82 431.34)"/><path class="cls-15" d="M1766.83-237.07l6.68,3.87a1.22,1.22,0,0,1,.57.94c0,.34-.26.47-.57.29l-6.68-3.88a1.19,1.19,0,0,1-.57-.93C1766.26-237.12,1766.51-237.25,1766.83-237.07Z" transform="translate(-1360.82 431.34)"/><path class="cls-11" d="M1766.83-217.73l6.68,3.88a1.22,1.22,0,0,1,.57.93c0,.34-.26.47-.57.29l-6.68-3.87a1.2,1.2,0,0,1-.57-.94C1766.26-217.78,1766.51-217.91,1766.83-217.73Z" transform="translate(-1360.82 431.34)"/><path class="cls-5" d="M1742.92-270.39l15.38,8.87a1.21,1.21,0,0,1,.56.94c0,.34-.25.46-.56.28l-15.38-8.87a1.21,1.21,0,0,1-.56-.93C1742.36-270.44,1742.61-270.57,1742.92-270.39Z" transform="translate(-1360.82 431.34)"/><path class="cls-19" d="M1742.92-270.39l15.38,8.87a1.21,1.21,0,0,1,.56.94c0,.34-.25.46-.56.28l-15.38-8.87a1.21,1.21,0,0,1-.56-.93C1742.36-270.44,1742.61-270.57,1742.92-270.39Z" transform="translate(-1360.82 431.34)"/><path class="cls-5" d="M1760.48-260.26l6.69,3.88a1.21,1.21,0,0,1,.56.93c0,.34-.25.47-.56.29l-6.69-3.88a1.19,1.19,0,0,1-.56-.93C1759.92-260.31,1760.17-260.44,1760.48-260.26Z" transform="translate(-1360.82 431.34)"/><path class="cls-19" d="M1760.48-260.26l6.69,3.88a1.21,1.21,0,0,1,.56.93c0,.34-.25.47-.56.29l-6.69-3.88a1.19,1.19,0,0,1-.56-.93C1759.92-260.31,1760.17-260.44,1760.48-260.26Z" transform="translate(-1360.82 431.34)"/></g><g id="Mouse"><path class="cls-9" d="M1655.66-204.31l9.43,5.44a10.36,10.36,0,0,0,10.4-.55L1691-210.77c2.78-2,2.62-5-.35-6.76l-4.72-2.74a12.83,12.83,0,0,0-10.93-.33l-19.19,10.4C1652.77-208.66,1652.69-206,1655.66-204.31Z" transform="translate(-1360.82 431.34)"/><path class="cls-3" d="M1691.29-215.7l-10.75,8.41-7.94,6.21a7,7,0,0,1-2.53.61,7,7,0,0,1-3.77-.8l-8.43-4.86s0,0,0,0l0,0a6,6,0,0,1-1.71-8.54l.25-.34a11.24,11.24,0,0,1,6.79-4.3l4.27-.86c6.92-1.4,12.59-2.08,13.25-1.64l10.57,6.13A.08.08,0,0,1,1691.29-215.7Z" transform="translate(-1360.82 431.34)"/><path class="cls-5" d="M1685.28-211l.6-.47-9.48-5.47,8.3-2.57-.84-.49-8.3,2.57-5.66-3.27-1.07.21Z" transform="translate(-1360.82 431.34)"/><path class="cls-10" d="M1673.53-201.59s0,0,0,0h0l7.56-5.45,10.19-7.37v-1.15a.1.1,0,0,0,0-.09.08.08,0,0,0-.06,0c-.76-.26-5.18,1.06-10.52,3.19l-3.54,1.4a11.48,11.48,0,0,0-3,1.79,11.27,11.27,0,0,0-4.08,8.68v.19a7,7,0,0,0,2.53-.61Z" transform="translate(-1360.82 431.34)"/></g></g><g id="Character-2" data-name="Character"><path class="cls-25" d="M1533-107.19c0-.2-3.21-11.79-3.21-11.79s1.05,1.07,7.75-.7a38,38,0,0,0,7.29-3.06l1.91,8.47c1.79,3.27,7.71,1.76,14.19,1,1.09-.13,2.21-.31,3.33-.5h.07c3.5-.19,7,1.91,3.38,4.89s-9.65,4.12-15.18,5.12C1545.91-102.54,1534.23-100.58,1533-107.19Z" transform="translate(-1360.82 431.34)"/><path class="cls-10" d="M1579.59-108.21a6.79,6.79,0,0,1,.48,3.56c-.12,1.29-3.32,5.67-9,8.35s-12.62,2.86-15.88,3.8-6.26,2.82-10.11,3.76-7.66,1.43-11.52-1.11c-.71-1.09-1.49-3.63-1.27-3.87C1533-94.39,1579.59-108.21,1579.59-108.21Z" transform="translate(-1360.82 431.34)"/><path class="cls-5" d="M1547.8-113.14c2.48,1.72,7.62.53,13.17-.1,5.24-.6,11.13-2.44,14.69-1.21s6.53,5.42,1.72,10.79c-1.39,1.56-4.33,4.29-6.69,5.13-6,2.14-11.34,2.32-15.18,3.26-5,1.24-7.74,3.45-12.36,4-6,.7-9.78-.84-10.82-2.44s-2-14.49.57-14.23c0,0,1.08,4.18,10.86.12C1548-109.59,1548-112.2,1547.8-113.14Z" transform="translate(-1360.82 431.34)"/><path class="cls-8" d="M1547.8-113.14c2.48,1.72,7.62.53,13.17-.1,5.24-.6,11.13-2.44,14.69-1.21s6.53,5.42,1.72,10.79c-1.39,1.56-4.33,4.29-6.69,5.13-6,2.14-11.34,2.32-15.18,3.26-5,1.24-7.74,3.45-12.36,4-6,.7-9.78-.84-10.82-2.44s-2-14.49.57-14.23c0,0,1.08,4.18,10.86.12C1548-109.59,1548-112.2,1547.8-113.14Z" transform="translate(-1360.82 431.34)"/><path class="cls-26" d="M1564.4-106.22s-.56-5.44-4.58-6.89a2.12,2.12,0,0,0-2.22.3s3.73.54,5,6.92c0,0,.19.43,1,.28C1563.84-105.66,1564.44-105.77,1564.4-106.22Z" transform="translate(-1360.82 431.34)"/><path class="cls-26" d="M1554.17-112.39s0-.18.94-.36a1.68,1.68,0,0,1,1.11.12s3,1.3,3.56,7a1,1,0,0,1-.93.88.82.82,0,0,1-1.07-.56S1557.16-111.31,1554.17-112.39Z" transform="translate(-1360.82 431.34)"/><path class="cls-26" d="M1551-112.27s.17-.35.87-.34c.89,0,1.1.35,1.1.35s2.14,2.19,2.16,6.94c0,0,.09.81-1,.89s-1-.83-1-.83S1552.7-111.32,1551-112.27Z" transform="translate(-1360.82 431.34)"/><path class="cls-3" d="M1528.9-186c4.9,14.73,17.9,65.46,17.9,65.46s-8.46,7.6-17.64,4.14l-21.87-63.17Z" transform="translate(-1360.82 431.34)"/><path class="cls-25" d="M1566.69-90.81c-1-1.49-4.76-11.81-4.76-11.81s3.92,2.25,10.67.64c3.43-.81,6.64-4.54,6.64-4.54l2.88,9.92c1.7,3.31,7.21,2.21,13.71,1.63,1.09-.09,2.21-.25,3.34-.41h.07c3.5-.11,7,2.08,3.25,5s-9.74,3.88-15.3,4.74C1580.51-84.63,1570.44-85.24,1566.69-90.81Z" transform="translate(-1360.82 431.34)"/><path class="cls-10" d="M1617.11-91.12a7.28,7.28,0,0,1,.43,3.83c-.17,1.39-3.72,6-9.84,8.74s-13.63,2.74-17.16,3.66-6.79,2.86-11,3.76-8.26,1.34-12.33-1.49c-.74-1.19-1.52-3.93-1.26-4.19C1566.67-77.51,1617.11-91.12,1617.11-91.12Z" transform="translate(-1360.82 431.34)"/><path class="cls-5" d="M1583.18-97.34a12,12,0,0,0,1.23.76,3.67,3.67,0,0,0,1.36.28,20,20,0,0,0,3.28.08c2.74-.14,5.47-.55,8.21-.79,5.63-.51,12-2.33,15.79-.91s7.25,6,1.94,11.62a26,26,0,0,1-7.1,5.39c-6.29,2.63-12.82,2.14-17,3-5.41,1.2-8.4,3.5-13.38,4-6.45.59-10.47-1.17-11.54-2.91-.6-1,.06-6-.74-10-.7-3.38-.52-5.69.7-5.53a5.67,5.67,0,0,0,.94,1.19,4.37,4.37,0,0,0,1.43,1.13,11.32,11.32,0,0,0,2.42.82,14.29,14.29,0,0,0,4.49.62,2.26,2.26,0,0,0,1.22-.39,2.6,2.6,0,0,0,.71-1.53c.1-.49.21-1,.31-1.49a2.15,2.15,0,0,1,.28-.78,2.05,2.05,0,0,1,.76-.6A6.58,6.58,0,0,0,1581-95.2a5.78,5.78,0,0,0,.72-2.31.57.57,0,0,1,.16-.38c.18-.15.45,0,.65.1Z" transform="translate(-1360.82 431.34)"/><path class="cls-8" d="M1583.18-97.34a12,12,0,0,0,1.23.76,3.67,3.67,0,0,0,1.36.28,20,20,0,0,0,3.28.08c2.74-.14,5.47-.55,8.21-.79,5.63-.51,12-2.33,15.79-.91s7.25,6,1.94,11.62a26,26,0,0,1-7.1,5.39c-6.29,2.63-12.82,2.14-17,3-5.41,1.2-8.4,3.5-13.38,4-6.45.59-10.47-1.17-11.54-2.91-.6-1,.06-6-.74-10-.7-3.38-.52-5.69.7-5.53a5.67,5.67,0,0,0,.94,1.19,4.37,4.37,0,0,0,1.43,1.13,11.32,11.32,0,0,0,2.42.82,14.29,14.29,0,0,0,4.49.62,2.26,2.26,0,0,0,1.22-.39,2.6,2.6,0,0,0,.71-1.53c.1-.49.21-1,.31-1.49a2.15,2.15,0,0,1,.28-.78,2.05,2.05,0,0,1,.76-.6A6.58,6.58,0,0,0,1581-95.2a5.78,5.78,0,0,0,.72-2.31.57.57,0,0,1,.16-.38c.18-.15.45,0,.65.1Z" transform="translate(-1360.82 431.34)"/><path class="cls-26" d="M1600.75-89.38s-.46-5.86-4.74-7.51a2.26,2.26,0,0,0-2.39.25s4,.68,5.14,7.57c0,0,.2.46,1.08.32C1600.13-88.8,1600.78-88.9,1600.75-89.38Z" transform="translate(-1360.82 431.34)"/><path class="cls-26" d="M1589.93-96.28s0-.19,1-.36a1.86,1.86,0,0,1,1.18.16s3.19,1.48,3.64,7.6a1.09,1.09,0,0,1-1,.92.89.89,0,0,1-1.14-.63S1593.12-95,1589.93-96.28Z" transform="translate(-1360.82 431.34)"/><path class="cls-26" d="M1586.47-96.23s.19-.37,1-.35c.95,0,1.16.41,1.16.41s2.24,2.41,2.14,7.51c0,0,.07.87-1.13.93s-1-.92-1-.92S1588.33-95.16,1586.47-96.23Z" transform="translate(-1360.82 431.34)"/><path class="cls-4" d="M1563.39-168.62c3.86,11.87,13.72,45.66,18.22,63,0,0-8.09,7.27-18.5,6.64L1538-164l10-6.19Z" transform="translate(-1360.82 431.34)"/><path class="cls-4" d="M1480.78-6.19a1.62,1.62,0,0,0,1.63-1.62V-112.4a1.63,1.63,0,0,0-1.63-1.63,1.63,1.63,0,0,0-1.63,1.63V-7.81A1.62,1.62,0,0,0,1480.78-6.19Z" transform="translate(-1360.82 431.34)"/><path class="cls-4" d="M1416.07-44.26a1.62,1.62,0,0,0,1.51-1l32.07-81.17a1.63,1.63,0,0,0-.91-2.11,1.62,1.62,0,0,0-2.11.91l-32.07,81.18a1.62,1.62,0,0,0,.91,2.11A1.59,1.59,0,0,0,1416.07-44.26Z" transform="translate(-1360.82 431.34)"/><path class="cls-4" d="M1419.92-54a1.61,1.61,0,0,0,1.18-.51l59.68-63.15,59.57,62.89a1.63,1.63,0,0,0,2.3.06,1.63,1.63,0,0,0,.06-2.3L1482-121.15a1.6,1.6,0,0,0-1.18-.51h0a1.59,1.59,0,0,0-1.18.51l-60.86,64.4a1.63,1.63,0,0,0,.06,2.3A1.62,1.62,0,0,0,1419.92-54Z" transform="translate(-1360.82 431.34)"/><path class="cls-4" d="M1545.49-44.26a1.59,1.59,0,0,0,.6-.11,1.63,1.63,0,0,0,.91-2.11l-32.07-81.18a1.62,1.62,0,0,0-2.11-.91,1.62,1.62,0,0,0-.92,2.11L1544-45.29A1.62,1.62,0,0,0,1545.49-44.26Z" transform="translate(-1360.82 431.34)"/><path class="cls-5" d="M1546.27-148.27c1.17-6.56-4.17-11.68-14.23-18.47a237.11,237.11,0,0,0-29.14-16.37c-8.41-3.86-17-3.5-27.78,2-15,7.69-60,35-60,35s67.32,38,80.28,36.3,45.32-22.75,47.89-30.16S1546.27-148.27,1546.27-148.27Z" transform="translate(-1360.82 431.34)"/><g class="cls-27"><path d="M1546.27-148.27c1.17-6.56-4.17-11.68-14.23-18.47a237.11,237.11,0,0,0-29.14-16.37c-8.41-3.86-17-3.5-27.78,2-15,7.69-60,35-60,35s67.32,38,80.28,36.3,45.32-22.75,47.89-30.16S1546.27-148.27,1546.27-148.27Z" transform="translate(-1360.82 431.34)"/></g><path class="cls-5" d="M1488.89-117.78c9.67,8.75,19.77,1.22,35.75-9.15,18.09-11.74,21.63-21.34,21.63-21.34s0,7.19-1.35,10.57-4.27,7.19-17.31,16.19-22.49,13.49-31.26,15.16l-6.92-1" transform="translate(-1360.82 431.34)"/><path class="cls-7" d="M1524.64-126.93c18.09-11.74,21.63-21.34,21.63-21.34s0,7.19-1.35,10.57-4.27,7.19-17.31,16.19-22.49,13.49-31.26,15.16l-6.92-1-.54-10.47C1498.56-109,1508.66-116.56,1524.64-126.93Z" transform="translate(-1360.82 431.34)"/><path class="cls-5" d="M1418.59-57l-4.95,11.43a.94.94,0,0,0-.06.29,1.48,1.48,0,0,0,0,.21,1.43,1.43,0,0,0,.63.77,3,3,0,0,0,2.68.12,1.12,1.12,0,0,0,.55-.52v0l0-.16,4.6-10.71Z" transform="translate(-1360.82 431.34)"/><path class="cls-5" d="M1543.28-56.51l4.24,11.19a1.35,1.35,0,0,1,0,.28v.2a1.33,1.33,0,0,1-.64.71,2.86,2.86,0,0,1-2.58,0,1.16,1.16,0,0,1-.51-.53v0l0-.15-3.93-10.49Z" transform="translate(-1360.82 431.34)"/><path class="cls-5" d="M1478.9-15.91v9.25a1,1,0,0,0,.55.77,2.94,2.94,0,0,0,2.65,0,.93.93,0,0,0,.55-.77v-9.25A4,4,0,0,0,1478.9-15.91Z" transform="translate(-1360.82 431.34)"/><path class="cls-3" d="M1442.09-187.49c3.83,4.46,38.72-5.57,48-6.83,14.91-2,27-3.52,32.11-1.93s7.21,4.17,8.76,10.23c1.83,7.15,2.77,10.79,2.77,10.79s-24.77,9.51-44.3,11.8S1442.09-187.49,1442.09-187.49Z" transform="translate(-1360.82 431.34)"/><path class="cls-4" d="M1435.58-180.94c-3.87,14.73-7.34,31.88,1.61,41.26,6,6.32,36.31,22.74,55.85,16.27,19.24-6.37,59.1-36,63.1-38.94s7.63-5,7.25-6.27c-5.37-17.85-13.23-19.24-27.79-16-17.82,3.92-56.92,19.88-56.92,19.88Z" transform="translate(-1360.82 431.34)"/><polygon class="cls-25" points="163.25 155.64 149.81 170.84 128.11 160.54 143.28 139.55 163.25 155.64"/><path class="cls-28" d="M1540.74-304.55s5.5,7.94,4.91,8.75-4.48,1.61-4.48,1.61Z" transform="translate(-1360.82 431.34)"/><circle class="cls-29" cx="179.88" cy="125.45" r="5.98"/><path class="cls-25" d="M1525.47-326.53c10.81,2,14,6.68,15.43,23.75,1.46,17.83-.23,23.48-2.52,25.94-1.55,1.66-10.34,2.15-14.81,1-5.59-1.4-18.25-5.56-24.34-14.41-7.15-10.41-9.3-24.69-2-30.74C1507.43-329.46,1521.07-327.35,1525.47-326.53Z" transform="translate(-1360.82 431.34)"/><path class="cls-28" d="M1524.07-275.69c4.65,1.05,11.72.41,13.83-.79a16,16,0,0,1-7.83-.29,25.61,25.61,0,0,1-7.17-3.16Z" transform="translate(-1360.82 431.34)"/><path class="cls-10" d="M1542.9-319.55l0,0c-3,2.08-6.7,2.95-10.32,3.51.28,2.9-.63,5.76-1.53,8.53-.62,1.91-2.87,7.92-5.32,4.62-1.77-2.38-3.37-4.55-6.76-4-5.58,1-6.17,8.12-2.55,12.38s6.88,2.51,6.88,2.51.52,7.7-3.54,13.13c0,0-6,3.73-14.55.93-5.36-1.77-13.1-8.53-16-13.81-7.85-14.53-7.89-28.44,1.62-32.72.89-7,6.28-10.2,12.47-11.77,8.59-2.18,17.51,3.2,25.81-.35,1.75-.75,3.36-1.81,5.15-2.46a3.49,3.49,0,0,1,3.09,0,3.73,3.73,0,0,1,1.32,2.36,6.63,6.63,0,0,1-.33,5,14.28,14.28,0,0,1,3.91-1.44,4.9,4.9,0,0,1,3.94.89,5,5,0,0,1,1.58,3.44C1548.13-325.15,1545.9-321.63,1542.9-319.55Z" transform="translate(-1360.82 431.34)"/><path class="cls-10" d="M1490.74-322.1l-6.52-3.64a3.72,3.72,0,0,1,5.08-1.44A3.72,3.72,0,0,1,1490.74-322.1Z" transform="translate(-1360.82 431.34)"/><line class="cls-30" x1="164.88" y1="128.47" x2="185.79" y2="124.56"/><path class="cls-25" d="M1569.41-266.82c-.56-.94-1.81-1.12-2.85-1.48-1.92-.67-3.42-2.2-5.27-3.05a10.33,10.33,0,0,0-6.66-.45,15.5,15.5,0,0,0-2.22.71,29,29,0,0,0-4,2c-5.3,3.14-9.28,10.23-14.49,13.48-1.94,1.21-3.75,2.31-5.54,3.4l12.44,11.09a76.55,76.55,0,0,1,6.13-4.67c3.07-1.82,6.16-1.86,9.6-2.36a47.62,47.62,0,0,0,7-1.76,3.06,3.06,0,0,0,2.07-1.35,2.09,2.09,0,0,0-1.34-2.56,18,18,0,0,0-3.63-.49c-.9-.15-3.3.39-3.83-.52-.28-.47.07-1.06.41-1.48,2.16-2.69,4.89-5.58,8.34-6.38a7.2,7.2,0,0,0,3-1.21A2.41,2.41,0,0,0,1569.41-266.82Z" transform="translate(-1360.82 431.34)"/><path class="cls-5" d="M1495-279.22c-13.21-7.21-25.24-2.58-29.58,6.69-3.92,8.39-12.16,40.84-12.16,40.84C1457.24-224.26,1495-279.22,1495-279.22Z" transform="translate(-1360.82 431.34)"/><path class="cls-5" d="M1493-276.61l2-2.61c-14.92-7.09-28.27,2.22-40,20.52-12.68,19.71-19.33,48-19.39,77.91,0,0,2.53,13.42,19.49,20.14,18,7.13,43.11,4.11,50.94-14.55,0,0,.15-18.64,5.82-27.81,3.67-5.94,12.22-19.14,18.58-28.6,5.54-8.24,9.85-27-1.73-33.85a94.58,94.58,0,0,0-9.4-4.8C1508.77-266.79,1491.68-272.43,1493-276.61Z" transform="translate(-1360.82 431.34)"/><path class="cls-31" d="M1493.08-276.55l1.94-2.67c-14.92-7.09-28.27,2.22-40,20.52-12.68,19.71-19.33,48-19.39,77.91,0,0,2.53,13.42,19.49,20.14,18,7.13,43.11,4.11,50.94-14.55,0,0,.15-18.64,5.82-27.81,3.67-5.94,12.22-19.14,18.58-28.6,5.54-8.24,9.85-27-1.73-33.85a94.58,94.58,0,0,0-9.4-4.8C1508.77-266.79,1491.72-272.37,1493.08-276.55Z" transform="translate(-1360.82 431.34)"/><path class="cls-32" d="M1535.25-243.56a30.2,30.2,0,0,0,.46-10.86h0a58,58,0,0,1-11.26,17.2c-6.07,6.39-13.56,11.37-19.19,18.15-6,7.18-10.25,15.86-15.25,23.71-2,3.15-4.74,9.22-8.46,9.46-4.54.3-8.88-5.23-11.35-9-4-6.09-7.34-13.69-12.25-19-4.29-4.66-10.93-10.65-16.77-7.94h0c-.44,1.56-.85,3.12-1.24,4.71s-.75,3.21-1.09,4.83c0,.06,0,.12,0,.18q-.49,2.44-.93,4.89c0,.09,0,.17,0,.26q-.42,2.43-.75,4.86a157.64,157.64,0,0,0-1.49,21.41s2.53,13.42,19.49,20.14c18,7.13,43.11,4.11,50.94-14.55,0,0,.15-18.64,5.82-27.81.57-.92,1.27-2,2.05-3.27h0l.13-.21c.65-1,1.35-2.13,2.11-3.31,0-.07.09-.14.13-.22l.06-.08c1.62-2.53,3.44-5.34,5.32-8.22l.85-1.31c1.82-2.78,3.67-5.59,5.43-8.24l0,0,1.74-2.61.73-1.09h0c.2-.3.4-.61.59-.93l.18-.3.42-.75.18-.33.45-.88a2.4,2.4,0,0,1,.11-.23c.19-.39.37-.8.55-1.21l0-.05,0-.07c.16-.37.32-.75.47-1.14l.1-.27c.14-.37.28-.74.41-1.12l0-.09s0-.08,0-.12c.24-.7.46-1.41.66-2.14h0c.21-.73.39-1.47.55-2.22v0Z" transform="translate(-1360.82 431.34)"/><path class="cls-25" d="M1604.44-225.41a29.26,29.26,0,0,1-3.1,3.2c-4.56,4.13-9.89,6.11-16.09,10.14-5,3.25-12.73,8-19.24,12a97.76,97.76,0,0,1-21,9.68c-6,1.77-9.43,1.85-13-7.84-1.75-4.75-3.14-9.62-4.66-14.45q-3.37-10.8-6.64-21.61s-8-19.83,10-29.79c7.83,4.48,10.81,6.29,13.27,15.67,2.93,11.22,7.69,33.38,7.69,33.38a156.82,156.82,0,0,0,18.6-7.91c2.28-1.14,5.09-1.92,6.72-4a30.62,30.62,0,0,0,2.86-4.45c.77-1.38,1.32-2.88,2.17-4.2a36.92,36.92,0,0,1,5.91-6.52,2.47,2.47,0,0,1,1.43-.84,1.62,1.62,0,0,1,1.45.88c.66,1.16,0,2.29-.29,3.47-.39,1.35-.78,2.69-1.16,4a35.36,35.36,0,0,0,11.48-10.76,5.94,5.94,0,0,1,.9-1.15,1.78,1.78,0,0,1,1.34-.49c1.2.15,2.39,2.1,2.45,3.21a17.29,17.29,0,0,0,.09,3.38c.27,1.05,1,1.91,1.31,2.93a17,17,0,0,1,.68,3.24,11.12,11.12,0,0,1-1.82,6.78A16.07,16.07,0,0,1,1604.44-225.41Z" transform="translate(-1360.82 431.34)"/><path class="cls-5" d="M1529.63-264.86c6.85,2.77,11.79,5.9,14.91,16.36s6.52,27.24,6.52,27.24.06,3.51-8.26,8.41a20.51,20.51,0,0,1-16.11,2.18l-6.28-20.2S1509.27-257.88,1529.63-264.86Z" transform="translate(-1360.82 431.34)"/><path class="cls-5" d="M1489.43-107.31c-5.5-.27-9.81-4.31-22.89-9.76-24.16-10.07-42.29-18.12-49.19-30.78s-11.79-49.18-10.06-65a20.44,20.44,0,0,1,1.18-5.25l-1.7-.25,4.4-3.74h0c4.52-3.69,11.86-.4,17.4,2.61,15.82,8.61,28.19,17,38,47.17,7.35,22.72,12.2,43.44,22.35,54.52" transform="translate(-1360.82 431.34)"/><path class="cls-33" d="M1408.47-218.1l-1.7-.25,4.4-3.74h0c4.52-3.69,11.86-.4,17.4,2.61,15.82,8.61,28.19,17,38,47.17,7.35,22.72,12.2,43.44,22.35,54.52l.54,10.47c-5.5-.27-9.81-4.31-22.89-9.76-24.16-10.07-42.29-18.12-49.19-30.78s-11.79-49.18-10.06-65A20.44,20.44,0,0,1,1408.47-218.1Z" transform="translate(-1360.82 431.34)"/><path class="cls-5" d="M1424-215.58c15.81,8.61,28.18,17,38,47.17s15.13,56.88,34.4,62.06c0,0-8.71,3.46-35.42-7.83-8.49-3.59-18.8-10.14-25.57-13.95-13.27-7.44-21.32-13.55-22.59-15.83-7-12.59-11.79-49.18-10.07-65S1416.06-219.89,1424-215.58Z" transform="translate(-1360.82 431.34)"/></g><g id="Speech_Bubble-2" data-name="Speech Bubble"><path class="cls-5" d="M1512.89-349.52l-4.37-8.21,3.51-10.15v-6.21l-10.75,6.21v6.21l4.62,8a.66.66,0,0,0,.32.28h0Z" transform="translate(-1360.82 431.34)"/><path class="cls-34" d="M1512.89-349.52l-4.37-8.21,3.51-10.15v-6.21l-10.75,6.21v6.21l4.62,8a.66.66,0,0,0,.32.28h0Z" transform="translate(-1360.82 431.34)"/><path class="cls-5" d="M1538.58-423.46a7.14,7.14,0,0,0-3.23-5.59l-2.62-1.52a7.12,7.12,0,0,0-6.45,0L1486-407.27a7.11,7.11,0,0,0-3.22,5.58v44.31a7.13,7.13,0,0,0,3.22,5.59l2.63,1.52a7.18,7.18,0,0,0,6.45,0l13-7.49,4.62,8a.68.68,0,0,0,1.24-.12l4.88-14.08,16.58-9.61a7.14,7.14,0,0,0,3.23-5.58Z" transform="translate(-1360.82 431.34)"/><path class="cls-34" d="M1482.78-357.38a7.13,7.13,0,0,0,3.22,5.59l2.63,1.52a7.21,7.21,0,0,0,5.9.26c-1.52.57-2.68-.29-2.68-2.13v-44.31a6.53,6.53,0,0,1,1-3.18l-9.08-5.24a6.62,6.62,0,0,0-.94,3.18Z" transform="translate(-1360.82 431.34)"/><path class="cls-16" d="M1538.47-424.38c-.38-1.37-1.62-1.81-3.11-.95L1495.08-402a6.4,6.4,0,0,0-2.28,2.41l-9.07-5.24a6.61,6.61,0,0,1,2.27-2.41l40.27-23.3a7.18,7.18,0,0,1,6.45,0l2.64,1.52A7.1,7.1,0,0,1,1538.47-424.38Z" transform="translate(-1360.82 431.34)"/><g id="_" data-name="&lt;/&gt;"><path class="cls-15" d="M1497.77-379a2.29,2.29,0,0,1,.17-.92,7,7,0,0,1,.47-.86l8.76-14.16a.79.79,0,0,1,.14-.16l.1-.08c.13-.07.24-.07.32,0a.57.57,0,0,1,.14.43v5.46a2.34,2.34,0,0,1-.26,1.14,6,6,0,0,1-.44.74l-4.52,6.89,4.52,2.08a1.34,1.34,0,0,1,.44.21c.17.1.26.38.26.83v3.88a1.3,1.3,0,0,1-.14.58.75.75,0,0,1-.32.39l-.1,0a.33.33,0,0,1-.14,0l-8.76-4a1.3,1.3,0,0,1-.47-.32,1.16,1.16,0,0,1-.17-.73Z" transform="translate(-1360.82 431.34)"/><path class="cls-15" d="M1516.86-400.92a6,6,0,0,1,.33-.88,1.62,1.62,0,0,1,.64-.68l2.93-1.7a.27.27,0,0,1,.34,0,.59.59,0,0,1,.14.44,1.47,1.47,0,0,1,0,.33l-7.4,31.53a4,4,0,0,1-.31.85,1.54,1.54,0,0,1-.66.72l-2.86,1.66a.27.27,0,0,1-.34,0,.57.57,0,0,1-.14-.44,1.47,1.47,0,0,1,0-.33Z" transform="translate(-1360.82 431.34)"/><path class="cls-15" d="M1533-395.81a2.33,2.33,0,0,1-.16.92,7,7,0,0,1-.47.86l-8.76,14.15a1,1,0,0,1-.14.17.46.46,0,0,1-.1.07.25.25,0,0,1-.33,0,.57.57,0,0,1-.13-.43v-5.46a2.24,2.24,0,0,1,.25-1.12,8.38,8.38,0,0,1,.45-.73l3.83-5.92-3.83-1.46a1.92,1.92,0,0,1-.45-.23c-.17-.12-.25-.4-.25-.85v-5.46a1.29,1.29,0,0,1,.13-.58.82.82,0,0,1,.33-.39l.1-.05h.14l8.76,4a1.3,1.3,0,0,1,.47.32,1.17,1.17,0,0,1,.16.73Z" transform="translate(-1360.82 431.34)"/></g></g><g id="Text_Box" data-name="Text Box"><g id="_2" data-name="{}"><g id="Speech_Bubble-3" data-name="Speech Bubble"><g id="Speach_Bubble" data-name="Speach Bubble"><path class="cls-10" d="M1416-429l-53.88,31a3,3,0,0,0-1.34,2.32v30.08a2.9,2.9,0,0,0,1.34,2.3l5.32,3a3,3,0,0,0,2.68,0l53.89-31.05a2.94,2.94,0,0,0,1.34-2.31v-30.08a2.92,2.92,0,0,0-1.34-2.31l-5.32-3A3,3,0,0,0,1416-429Z" transform="translate(-1360.82 431.34)"/><path class="cls-4" d="M1425.37-423.94c-.1-.67-.65-.91-1.32-.53l-53.88,31.05a2.7,2.7,0,0,0-1,1l-8-4.59a2.66,2.66,0,0,1,.92-1l53.89-31a3,3,0,0,1,2.68,0l5.31,3A2.93,2.93,0,0,1,1425.37-423.94Z" transform="translate(-1360.82 431.34)"/><path class="cls-3" d="M1424.05-424.47l-53.89,31.05a3,3,0,0,0-1.33,2.31V-361c0,.86.6,1.2,1.33.78l53.89-31.05a2.94,2.94,0,0,0,1.34-2.31v-30.08C1425.39-424.55,1424.79-424.89,1424.05-424.47Z" transform="translate(-1360.82 431.34)"/></g></g></g><path class="cls-35" d="M1382.14-385.71c0,.23,0,.56,0,1s0,.83,0,1.26,0,.86,0,1.27,0,.73,0,.95a6.52,6.52,0,0,0,.16,1.07,1.74,1.74,0,0,0,.38.77.92.92,0,0,0,.65.29,1.75,1.75,0,0,0,1-.31,4,4,0,0,0,1-.77,5.11,5.11,0,0,0,.61-.87,4.49,4.49,0,0,0,.38-.89c.08-.3.15-.57.19-.8a3.28,3.28,0,0,1,.19-.71.9.9,0,0,1,.4-.4l2.25-1.3a.2.2,0,0,1,.27,0,.46.46,0,0,1,.11.34,10.23,10.23,0,0,1-.43,2.79,12.78,12.78,0,0,1-1.13,2.73,13,13,0,0,1-1.7,2.36,8.77,8.77,0,0,1-2.11,1.74,4.57,4.57,0,0,1-2.21.71,2.54,2.54,0,0,1-1.66-.6,3.61,3.61,0,0,1-1.06-1.68,9.34,9.34,0,0,1-.42-2.52q0-1.06,0-2.31c0-.83,0-1.63,0-2.41a13.77,13.77,0,0,1,.41-3,15.07,15.07,0,0,1,1.06-2.91,12.14,12.14,0,0,1,1.66-2.51,9,9,0,0,1,2.22-1.85,4.81,4.81,0,0,1,2.11-.7,2.84,2.84,0,0,1,1.7.42,3,3,0,0,1,1.13,1.41,5.81,5.81,0,0,1,.43,2.29,1.2,1.2,0,0,1-.11.48.73.73,0,0,1-.27.32l-2.25,1.3c-.2.12-.33.14-.4.06a1.19,1.19,0,0,1-.19-.49,3.81,3.81,0,0,0-.19-.57,1,1,0,0,0-.38-.46,1,1,0,0,0-.61-.16,2.13,2.13,0,0,0-1,.34,3.75,3.75,0,0,0-1,.82,4.72,4.72,0,0,0-.65,1.05,5.77,5.77,0,0,0-.38,1.2A10.85,10.85,0,0,0,1382.14-385.71Z" transform="translate(-1360.82 431.34)"/><path class="cls-35" d="M1396.79-401.48a4.6,4.6,0,0,1,2-.68,3,3,0,0,1,1.59.34,2.69,2.69,0,0,1,1,1.09,3.56,3.56,0,0,1,.4,1.55,1,1,0,0,1-.12.47.65.65,0,0,1-.24.32l-2.26,1.3a.63.63,0,0,1-.39.12.67.67,0,0,1-.3-.14l-.16-.17a.85.85,0,0,0-.32-.21,1.21,1.21,0,0,0-.52,0,2.06,2.06,0,0,0-.75.29,5.39,5.39,0,0,0-.63.43,3.27,3.27,0,0,0-.53.52,2.25,2.25,0,0,0-.38.63,1.85,1.85,0,0,0-.15.74.84.84,0,0,0,.16.57.74.74,0,0,0,.56.17,4.22,4.22,0,0,0,1-.15l1.58-.41a5.17,5.17,0,0,1,1.65-.21,2,2,0,0,1,1.18.44,2.45,2.45,0,0,1,.71,1.19,7.43,7.43,0,0,1,.23,2,9.07,9.07,0,0,1-.39,2.64,10.9,10.9,0,0,1-1.12,2.46,11,11,0,0,1-1.68,2.12,10.76,10.76,0,0,1-2.13,1.63,5.16,5.16,0,0,1-2.13.75,3,3,0,0,1-1.66-.3,2.59,2.59,0,0,1-1.09-1.13,3.74,3.74,0,0,1-.42-1.75,1,1,0,0,1,.12-.47.61.61,0,0,1,.25-.32l2.25-1.3a.85.85,0,0,1,.38-.13.54.54,0,0,1,.27.12,2.88,2.88,0,0,1,.21.23,1.08,1.08,0,0,0,.37.27,1,1,0,0,0,.58.1,2,2,0,0,0,.87-.31,6.49,6.49,0,0,0,1.53-1.19,2.1,2.1,0,0,0,.61-1.45.57.57,0,0,0-.23-.53,1.09,1.09,0,0,0-.67-.1,5.72,5.72,0,0,0-1.14.22c-.47.13-1,.27-1.64.42a2.5,2.5,0,0,1-2.59-.45,4.71,4.71,0,0,1-.82-3.17,9.14,9.14,0,0,1,.33-2.37,10.94,10.94,0,0,1,1-2.39,10.71,10.71,0,0,1,1.54-2.15A8.51,8.51,0,0,1,1396.79-401.48Z" transform="translate(-1360.82 431.34)"/><path class="cls-35" d="M1409.25-408.67a4.44,4.44,0,0,1,2-.68,2.92,2.92,0,0,1,1.59.34,2.63,2.63,0,0,1,1.05,1.09,3.39,3.39,0,0,1,.39,1.55,1,1,0,0,1-.11.47.61.61,0,0,1-.25.32l-2.25,1.3a.71.71,0,0,1-.39.12.71.71,0,0,1-.3-.15l-.16-.17a1,1,0,0,0-.32-.2,1.07,1.07,0,0,0-.52,0,1.84,1.84,0,0,0-.75.29,4.38,4.38,0,0,0-.63.43,3.8,3.8,0,0,0-.54.52,2.18,2.18,0,0,0-.37.63,1.85,1.85,0,0,0-.15.74.79.79,0,0,0,.16.57.75.75,0,0,0,.55.17,4.78,4.78,0,0,0,1-.15l1.58-.41a5.17,5.17,0,0,1,1.65-.21,1.87,1.87,0,0,1,1.18.44,2.41,2.41,0,0,1,.71,1.18,7.51,7.51,0,0,1,.23,2,8.76,8.76,0,0,1-.4,2.64,10.2,10.2,0,0,1-1.11,2.45,11.18,11.18,0,0,1-1.68,2.13,10.34,10.34,0,0,1-2.13,1.62,5.19,5.19,0,0,1-2.13.76,3,3,0,0,1-1.66-.3,2.59,2.59,0,0,1-1.09-1.13,3.77,3.77,0,0,1-.42-1.75,1.2,1.2,0,0,1,.11-.48.75.75,0,0,1,.25-.31l2.26-1.3a.63.63,0,0,1,.38-.13.54.54,0,0,1,.27.12,2.39,2.39,0,0,1,.21.22,1.09,1.09,0,0,0,.37.28,1.14,1.14,0,0,0,.58.1,2,2,0,0,0,.87-.32,6.2,6.2,0,0,0,1.52-1.18,2.08,2.08,0,0,0,.62-1.45.56.56,0,0,0-.23-.53,1.08,1.08,0,0,0-.67-.11,5.85,5.85,0,0,0-1.14.23l-1.65.42a2.49,2.49,0,0,1-2.59-.46,4.74,4.74,0,0,1-.81-3.17,9,9,0,0,1,.33-2.36,11.42,11.42,0,0,1,1-2.39,11.24,11.24,0,0,1,1.54-2.15A8.51,8.51,0,0,1,1409.25-408.67Z" transform="translate(-1360.82 431.34)"/></g><g id="Text_Box-2" data-name="Text Box"><g id="_3" data-name="{}"><g id="Speech_Bubble-4" data-name="Speech Bubble"><g id="Speach_Bubble-2" data-name="Speach Bubble"><path class="cls-10" d="M1416-366.5l-53.88,31.05a2.94,2.94,0,0,0-1.34,2.31V-303a2.92,2.92,0,0,0,1.34,2.3l5.32,3a3,3,0,0,0,2.68,0l53.89-31a3,3,0,0,0,1.34-2.32v-30.08a2.92,2.92,0,0,0-1.34-2.3l-5.32-3A3,3,0,0,0,1416-366.5Z" transform="translate(-1360.82 431.34)"/><path class="cls-4" d="M1425.37-361.42c-.1-.68-.65-.92-1.32-.53l-53.88,31a2.77,2.77,0,0,0-1,1l-8-4.59a2.63,2.63,0,0,1,.92-.95l53.89-31.05a3,3,0,0,1,2.68,0l5.31,3A2.94,2.94,0,0,1,1425.37-361.42Z" transform="translate(-1360.82 431.34)"/><path class="cls-3" d="M1424.05-361.95l-53.89,31a3,3,0,0,0-1.33,2.32v30.08c0,.85.6,1.2,1.33.77l53.89-31a3,3,0,0,0,1.34-2.32v-30.08C1425.39-362,1424.79-362.38,1424.05-361.95Z" transform="translate(-1360.82 431.34)"/></g></g></g><path class="cls-35" d="M1382.4-330.4a.25.25,0,0,1,.33,0,.57.57,0,0,1,.14.42v17.12a1.41,1.41,0,0,1-.14.58.85.85,0,0,1-.33.4l-2.25,1.3a.25.25,0,0,1-.33,0,.58.58,0,0,1-.14-.43v-6.49l-3.82,2.21v6.49a1.24,1.24,0,0,1-.14.58.84.84,0,0,1-.32.4l-2.26,1.3a.25.25,0,0,1-.32,0,.58.58,0,0,1-.14-.44v-17.12a1.41,1.41,0,0,1,.14-.58.9.9,0,0,1,.32-.4l2.26-1.3a.24.24,0,0,1,.32,0,.54.54,0,0,1,.14.43v6.38l3.82-2.2v-6.39a1.37,1.37,0,0,1,.14-.58.8.8,0,0,1,.33-.4Z" transform="translate(-1360.82 431.34)"/><path class="cls-35" d="M1395-337.66a.25.25,0,0,1,.33,0,.56.56,0,0,1,.14.42v2.81a1.37,1.37,0,0,1-.14.58.8.8,0,0,1-.33.4l-3,1.75v13.59a1.21,1.21,0,0,1-.14.58.84.84,0,0,1-.32.4l-2.26,1.31a.24.24,0,0,1-.32,0,.53.53,0,0,1-.14-.42v-13.59l-3,1.75a.26.26,0,0,1-.33,0,.56.56,0,0,1-.13-.42v-2.81a1.36,1.36,0,0,1,.13-.58.86.86,0,0,1,.33-.4Z" transform="translate(-1360.82 431.34)"/><path class="cls-35" d="M1402.89-328.35a1.36,1.36,0,0,1-.24-.31l-1.61-3.43v8.77a1.41,1.41,0,0,1-.14.58.85.85,0,0,1-.33.4l-2.25,1.3a.25.25,0,0,1-.33,0,.58.58,0,0,1-.14-.43V-338.6a1.37,1.37,0,0,1,.14-.58.8.8,0,0,1,.33-.4l2-1.16c.23-.13.41-.13.52,0a1.2,1.2,0,0,1,.22.29l2.79,5.73,2.79-8.95c0-.11.11-.29.22-.55a1.25,1.25,0,0,1,.52-.59l2-1.15a.23.23,0,0,1,.32,0,.58.58,0,0,1,.14.43v17.11a1.37,1.37,0,0,1-.14.58.84.84,0,0,1-.32.4l-2.26,1.3a.25.25,0,0,1-.33,0,.57.57,0,0,1-.13-.42v-8.77L1405-330c-.06.18-.14.37-.23.57a1,1,0,0,1-.41.46l-1.1.64C1403.12-328.26,1403-328.26,1402.89-328.35Z" transform="translate(-1360.82 431.34)"/><path class="cls-35" d="M1421.53-338.68a.25.25,0,0,1,.33,0,.58.58,0,0,1,.14.43v2.81a1.41,1.41,0,0,1-.14.58.85.85,0,0,1-.33.4l-8,4.6a.25.25,0,0,1-.32,0,.58.58,0,0,1-.14-.43V-347.4a1.42,1.42,0,0,1,.14-.59,1,1,0,0,1,.32-.4l2.26-1.3a.24.24,0,0,1,.32,0,.52.52,0,0,1,.14.42v13.59Z" transform="translate(-1360.82 431.34)"/></g></g></svg>