<svg id="visual" viewBox="0 0 900 450" width="900" height="450" xmlns="http://www.w3.org/2000/svg" xmlns:xlink="http://www.w3.org/1999/xlink" version="1.1"><rect x="0" y="0" width="900" height="450" fill="#86b7ac"></rect><defs><linearGradient id="grad1_0" x1="50%" y1="0%" x2="100%" y2="100%"><stop offset="10%" stop-color="#86b7ac" stop-opacity="1"></stop><stop offset="90%" stop-color="#86b7ac" stop-opacity="1"></stop></linearGradient></defs><defs><linearGradient id="grad2_0" x1="0%" y1="0%" x2="50%" y2="100%"><stop offset="10%" stop-color="#86b7ac" stop-opacity="1"></stop><stop offset="90%" stop-color="#86b7ac" stop-opacity="1"></stop></linearGradient></defs><g transform="translate(900, 0)"><path d="M0 405C-12.9 340.9 -25.8 276.8 -56.8 285.4C-87.8 294 -136.9 375.2 -155 374.2C-173 373.1 -160 289.8 -174.4 261.1C-188.9 232.4 -231 258.3 -253.9 253.9C-276.7 249.4 -280.4 214.5 -277.7 185.6C-275 156.7 -265.8 133.8 -284.6 117.9C-303.3 102 -349.9 93 -374.7 74.5C-399.4 56 -402.2 28 -405 0L0 0Z" fill="#99ccc1"></path></g><g transform="translate(0, 450)"><path d="M0 -405C24.5 -391.1 48.9 -377.3 73.5 -369.8C98.2 -362.2 122.9 -361 144.7 -349.2C166.4 -337.4 185.1 -315 191.7 -286.9C198.2 -258.7 192.6 -224.8 210.7 -210.7C228.8 -196.7 270.7 -202.5 282.7 -188.9C294.7 -175.3 277 -142.4 296.6 -122.8C316.1 -103.3 372.9 -97.2 397.2 -79C421.5 -60.8 413.3 -30.4 405 0L0 0Z" fill="#99ccc1"></path></g></svg>