<svg id="visual" viewBox="0 0 960 540" width="960" height="540" xmlns="http://www.w3.org/2000/svg" xmlns:xlink="http://www.w3.org/1999/xlink" version="1.1"><rect x="0" y="0" width="960" height="540" fill="#86b7ac"></rect><path d="M0 444L22.8 439.8C45.7 435.7 91.3 427.3 137 420.7C182.7 414 228.3 409 274 410.3C319.7 411.7 365.3 419.3 411.2 421.8C457 424.3 503 421.7 548.8 416.3C594.7 411 640.3 403 686 394.3C731.7 385.7 777.3 376.3 823 375.3C868.7 374.3 914.3 381.7 937.2 385.3L960 389L960 541L937.2 541C914.3 541 868.7 541 823 541C777.3 541 731.7 541 686 541C640.3 541 594.7 541 548.8 541C503 541 457 541 411.2 541C365.3 541 319.7 541 274 541C228.3 541 182.7 541 137 541C91.3 541 45.7 541 22.8 541L0 541Z" fill="#99ccc1" stroke-linecap="round" stroke-linejoin="miter"></path></svg>