<svg id="visual" viewBox="0 0 540 960" width="540" height="960" xmlns="http://www.w3.org/2000/svg" xmlns:xlink="http://www.w3.org/1999/xlink" version="1.1"><rect x="0" y="0" width="540" height="960" fill="#86b7ac"></rect><path d="M0 791L12.8 783.7C25.7 776.3 51.3 761.7 77 749.5C102.7 737.3 128.3 727.7 154 729.8C179.7 732 205.3 746 231.2 750.5C257 755 283 750 308.8 740.5C334.7 731 360.3 717 386 701.7C411.7 686.3 437.3 669.7 463 667.8C488.7 666 514.3 679 527.2 685.5L540 692L540 961L527.2 961C514.3 961 488.7 961 463 961C437.3 961 411.7 961 386 961C360.3 961 334.7 961 308.8 961C283 961 257 961 231.2 961C205.3 961 179.7 961 154 961C128.3 961 102.7 961 77 961C51.3 961 25.7 961 12.8 961L0 961Z" fill="#99ccc1" stroke-linecap="round" stroke-linejoin="miter"></path></svg>